<?xml version="1.0" encoding="utf-8"?>
<!-- Generator: Adobe Illustrator 26.1.0, SVG Export Plug-In . SVG Version: 6.00 Build 0)  -->
<svg version="1.1" xmlns="http://www.w3.org/2000/svg" xmlns:xlink="http://www.w3.org/1999/xlink" x="0px" y="0px"
	 viewBox="0 0 595.3 841.8" style="enable-background:new 0 0 595.3 841.8;" xml:space="preserve">
<style type="text/css">
	.st0{filter:url(#Adobe_OpacityMaskFilter);}
	.st1{mask:url(#color_00000083060896769821809800000002853683678921812869_);enable-background:new    ;}
	.st2{filter:url(#Adobe_OpacityMaskFilter_00000144337426762769452890000000283005373910482830_);}
	.st3{fill:#6D564C;}
	.st4{fill:#FFFFFF;}
	.st5{fill:#DDD3C3;}
	.st6{fill:none;stroke:#000000;stroke-width:2;stroke-miterlimit:10;}
	.st7{fill:#FFFFFF;stroke:#000000;stroke-width:2;stroke-miterlimit:10;}
	.st8{fill:#E5DBCA;}
	.st9{display:none;}
	.st10{fill:#231F20;}
	
		.st11{clip-path:url(#SVGID_00000097492022949835534340000009819856404304963223_);fill:url(#SVGID_00000039838523586439456420000006640221158710248123_);}
	.st12{clip-path:url(#SVGID_00000097492022949835534340000009819856404304963223_);fill:#231F20;}
	.st13{clip-path:url(#SVGID_00000097492022949835534340000009819856404304963223_);fill:#FFFFFF;}
	.st14{fill:#231F20;stroke:#231F20;stroke-width:0.25;stroke-miterlimit:10;}
	.st15{fill:url(#SVGID_00000112628731090542977380000016411625716512240536_);}
	.st16{fill:url(#SVGID_00000103954276053761877250000015098763061168549783_);}
	.st17{fill:url(#SVGID_00000169536977940809382090000011478913731266139284_);}
	.st18{fill:#6D0C1E;}
</style>
<defs>
	<filter id="Adobe_OpacityMaskFilter" filterUnits="userSpaceOnUse" x="120" y="189.4" width="354.4" height="370.6">
		<feColorMatrix  type="matrix" values="1 0 0 0 0  0 1 0 0 0  0 0 1 0 0  0 0 0 1 0"/>
	</filter>
</defs>
<mask maskUnits="userSpaceOnUse" x="120" y="189.4" width="354.4" height="370.6" id="color_00000054252398744470029270000008648065818706575764_">
	<g id="colorOpacity_Mask_00000040566750632241970110000012535953363798591665_" class="st0">
		
			<image style="overflow:visible;" width="10804" height="5846" id="colorOpacity_Mask_00000042699549519304185080000012269468269268135583_" xlink:href="D26F3DB6.jpg"  transform="matrix(0.144 0 0 0.144 -382.32 0)">
		</image>
	</g>
</mask>
<g id="color_00000064356237722060297860000018318578133865512599_" style="mask:url(#color_00000054252398744470029270000008648065818706575764_);enable-background:new    ;">
	<g id="Group_6_00000028291646251946982150000010770004257019064739_">
		<defs>
			
				<filter id="Adobe_OpacityMaskFilter_00000175309030325160990950000016923394087249808308_" filterUnits="userSpaceOnUse" x="120" y="304.7" width="354.4" height="254.7">
				<feColorMatrix  type="matrix" values="1 0 0 0 0  0 1 0 0 0  0 0 1 0 0  0 0 0 1 0"/>
			</filter>
		</defs>
		
			<mask maskUnits="userSpaceOnUse" x="120" y="304.7" width="354.4" height="254.7" id="color_00000054252398744470029270000008648065818706575764_">
			
				<g id="bikeOpacity_Mask_00000131351089798613365700000013890034686258124934_" style="filter:url(#Adobe_OpacityMaskFilter_00000175309030325160990950000016923394087249808308_);">
				
					<image style="overflow:visible;" width="4134" height="5846" id="bikeOpacity_Mask_00000026879444298112996450000011039665686570164655_" xlink:href="D26F3DBA.jpg"  transform="matrix(0.144 0 0 0.144 0 0)">
				</image>
			</g>
		</mask>
		<g id="bike_00000136385099772384079840000004440436040228592037_">
			<g id="wheel_copy_00000139276426238502317320000001129484746954853000_">
				<g id="Rectangle_1">
					<g>
						<polygon class="st3" points="446.8,341 289.7,341.1 257,421.5 474.3,418.3 						"/>
					</g>
				</g>
				<g id="Shape_956">
					<g>
						<path class="st4" d="M435.5,356.7c-11.3,4.1-38.9,2.2-38.9,2.2s0.2,15.4-1.9,25.1c3.9-2.4,35.4,1.9,41.8,2.6
							C433.9,379.3,435.5,356.7,435.5,356.7z"/>
					</g>
				</g>
				<g id="Shape_965">
					<g>
						<polygon class="st3" points="225.9,445.4 143.4,446.3 131,491.6 237.2,496.4 						"/>
					</g>
				</g>
				<g id="Shape_966">
					<g>
						<polygon class="st3" points="141.3,304.7 120,334.8 131.2,491.9 144.1,448 						"/>
					</g>
				</g>
				<g id="Shape_967">
					<g>
						<polygon class="st3" points="131.2,491.5 127.6,557.4 135.2,558.1 136.8,489 						"/>
					</g>
				</g>
				<g id="Shape_968">
					<g>
						<polygon class="st3" points="229.8,496.1 228.2,559.4 236.7,558.9 236.7,495.9 						"/>
					</g>
				</g>
				<g id="Shape_969">
					<g>
						<polygon class="st3" points="150.9,483.1 142.7,488.9 142.8,521.9 151.5,522.1 						"/>
					</g>
				</g>
				<g id="Shape_970">
					<g>
						<polygon class="st3" points="235.6,487.6 236,515.5 243.2,515.8 244.5,488.7 						"/>
					</g>
				</g>
				<g id="Shape_971">
					<g>
						<path class="st3" d="M401.6,518.3c-3.5-1.5,3.1,5.8-4.8,8.8c-7.9,3-19.4-12.3-24.2-32.1s-1-133.1-1-133.1l-9.9,32.7
							c3.1,22.3,1.8,100.3,0.9,111c-2.1,22.9-14,24.7-17,21.7s-5.6-8.2-5.8-1.2c-0.1,7,5.3,11.4,15.8,7.8
							c10.5-3.6,13.2-34.7,13.2-34.7s3.1,10.1,10.8,22.8c7.7,12.6,17.1,13.8,23,8.1C408.7,524.3,405.1,519.8,401.6,518.3z"/>
					</g>
				</g>
			</g>
		</g>
		<g id="face_00000063630389009266110530000004314156401570467228_">
			<g id="neck_and_scarfe_00000119082683603825203120000000012656972927875238_">
				<g id="Shape_116">
					<g>
						<path class="st5" d="M239.9,270.9c-1.7,4.1-17.8,32.1-17.8,32.1s3.5,14.9,7.5,9c4-5.8,10.7-12,19.8-25.5L239.9,270.9z"/>
					</g>
				</g>
				<g id="Shape_947">
					<g>
						<path class="st4" d="M225.5,294.6c0,0-27.4,15.9-31.6,32.5c-4.3,16.5-25,57.6-33,63.8c0,0,8.4,6.5,10.9,11.2
							c5-6.5,32.2-60,34.5-69.8c2.3-9.8,25.7-30.4,25.7-30.4L225.5,294.6z"/>
					</g>
					<g>
						<path class="st6" d="M225.5,294.6c0,0-27.4,15.9-31.6,32.5c-4.3,16.5-25,57.6-33,63.8c0,0,8.4,6.5,10.9,11.2
							c5-6.5,32.2-60,34.5-69.8c2.3-9.8,25.7-30.4,25.7-30.4L225.5,294.6z"/>
					</g>
				</g>
				<g id="Shape_951">
					<g>
						<path class="st4" d="M159.2,417.2c3.5-2.9,13-16,13-16L159.2,417.2z"/>
					</g>
					<g>
						<path class="st6" d="M159.2,417.2c3.5-2.9,13-16,13-16L159.2,417.2z"/>
					</g>
				</g>
				<g id="Shape_946">
					<g>
						<path class="st4" d="M242.6,298.7c-3.5-4-13-8.1-16.1-8.8c-4.6-1-5.7,13.8-5.9,16.1l19.1,2.2
							C239.7,308.3,246.1,302.7,242.6,298.7z"/>
					</g>
					<g>
						<path class="st6" d="M242.6,298.7c-3.5-4-13-8.1-16.1-8.8c-4.6-1-5.7,13.8-5.9,16.1l19.1,2.2
							C239.7,308.3,246.1,302.7,242.6,298.7z"/>
					</g>
				</g>
				<g id="Shape_946_00000088127166900839494820000014979090936933041024_">
					<g>
						<path class="st4" d="M241.1,302.4c6.8,3.3-28.8-22.2-22,3.7l21.3,6.6C240.4,312.7,245.8,304.7,241.1,302.4z"/>
					</g>
					<g>
						<path class="st6" d="M241.1,302.4c6.8,3.3-28.8-22.2-22,3.7l21.3,6.6C240.4,312.7,245.8,304.7,241.1,302.4z"/>
					</g>
				</g>
				<path class="st7" d="M160.7,390.9c0,0-4.7,5.8-7.4,10.3c-2.7,4.5-5.9,7.6-5.9,7.6"/>
				<path class="st7" d="M164.2,393.6c0,0-3.2,2.9-4.2,7.1c-1,4.3-6.2,10.1-6.2,10.1"/>
				<path class="st7" d="M168.5,397.7c0,0-1.4,5.4-4.3,8.3s-8.3,7.2-8.7,9.8"/>
			</g>
			<g id="Shape_117">
				<g>
					<path class="st5" d="M321.6,264l-19.9,21.5c1.3-0.7,16.4,6.7,15.2,0.7C315.8,280.1,321.6,264,321.6,264z"/>
				</g>
			</g>
			<g id="Ellipse_6">
				<g>
					
						<ellipse transform="matrix(0.3352 -0.9421 0.9421 0.3352 -48.9882 423.2003)" class="st5" cx="275.4" cy="246.3" rx="50.8" ry="52.1"/>
				</g>
			</g>
			<g id="hair_00000088121035731366081620000018073477125274029961_">
				<g id="Shape_120">
					<g>
						<path class="st3" d="M323.6,271.6c-0.7,0-1.5-0.5-2.5-1c-0.4-0.2-0.8-0.4-1.2-0.6c-1.9-0.9-1.5-2.5-0.5-5.5
							c0.6-1.9,1.3-4.1,1.3-6.6c-0.1-9.6-5.3-21.6-6.5-24.3l7.5-2.3c0.1,0.1,0.1,0.2,0.2,0.3c1.8,2.8,5.9,9.2,5,26
							C326.4,267.3,325.4,271.6,323.6,271.6C323.6,271.6,323.6,271.6,323.6,271.6z"/>
					</g>
					<g>
						<path d="M321.5,231.9c1.8,2.7,5.8,9.1,4.9,25.7c-0.6,11.2-1.9,13.5-2.9,13.5c-0.5,0-1.4-0.4-2.2-0.9c-0.4-0.2-0.8-0.4-1.2-0.6
							c-1.5-0.7-1.3-1.8-0.3-4.9c0.6-1.9,1.4-4.2,1.3-6.8c-0.1-9.3-4.8-20.5-6.3-24L321.5,231.9 M322,230.8l-8.4,2.5
							c0,0,6.6,13.8,6.7,24.6c0.1,6-4.5,10.6-0.5,12.6c1.5,0.7,2.8,1.7,3.9,1.7c1.9,0,3.2-2.8,3.9-14.4
							C328.4,239.3,323.4,233.1,322,230.8L322,230.8z"/>
					</g>
				</g>
				<g id="Shape_121">
					<g>
						<path class="st3" d="M262.5,273.5c-0.4,0-0.9-0.2-1.3-0.6c-2.7-2.6-5.2-4.1-7-4.3c2.2-4.5,24.5-35.9,28.4-39.9l11,2.5
							c-3.2,3.7-19.1,22.4-27.4,38.7C265.7,270.9,264.1,273.5,262.5,273.5C262.5,273.5,262.5,273.5,262.5,273.5z"/>
					</g>
					<g>
						<path d="M282.7,229.3l9.9,2.2c-4.2,4.8-19,22.7-26.9,38.2c-0.6,1.1-2.1,3.3-3.3,3.3c-0.3,0-0.6-0.1-0.9-0.5
							c-2.4-2.3-4.7-3.8-6.6-4.3C258.2,262.4,278.6,233.8,282.7,229.3 M282.4,228.2c-3.1,2.9-30.4,40.9-28.8,40.9c0,0,0,0,0,0
							c0.1,0,0.1,0,0.2,0c1.7,0,4.3,1.5,7,4.2c0.5,0.5,1.1,0.7,1.6,0.7c2.3,0,4.2-3.8,4.2-3.8c9.2-18.2,27.8-39.3,27.8-39.3
							L282.4,228.2L282.4,228.2z"/>
					</g>
				</g>
				<g id="Shape_122">
					<g>
						<path class="st3" d="M235.7,285.4c-0.3,0-0.4-0.3-0.4-1.5c0-0.9,0-2-0.9-2.3l-0.4-0.1c-1.2-0.4-3.2-1.2-3.5-2.2
							c-0.1-0.5,0.1-1,0.7-1.6c0.4-0.4,1.6-1.7,3.3-3.5c14.4-15.3,33.5-36.1,35.5-41.7l11.8-0.1c-4,5.5-27.6,38-39,48.1
							C238.1,284.5,236.4,285.4,235.7,285.4L235.7,285.4z"/>
					</g>
					<g>
						<path d="M280.7,232.9c-5.3,7.3-27.5,37.5-38.3,47.2c-4.4,3.9-6,4.7-6.5,4.8c0-0.3,0-0.7,0-1c0-1,0-2.4-1.2-2.8l-0.4-0.1
							c-1-0.3-3-1.1-3.2-1.9c-0.1-0.4,0.3-0.9,0.5-1.2c0.4-0.4,1.6-1.7,3.2-3.5c15.3-16.3,32.9-35.4,35.4-41.5L280.7,232.9
							 M282.7,231.9l-13.1,0.1c-1.5,6.4-36.2,42.4-38.7,45.3c-2.6,2.9,1.6,4.1,3.4,4.8c1.2,0.4-0.2,3.8,1.4,3.8c1,0,3-1.2,7.3-5.1
							C255.6,269.6,282.7,231.9,282.7,231.9L282.7,231.9z"/>
					</g>
				</g>
				<g id="Shape_124">
					<g>
						<path class="st3" d="M231.7,279c0-0.1,0-0.6,0.1-1c0.1-0.8,0.1-1.7-0.4-2.2c-0.2-0.3-0.6-0.4-1-0.4c-0.1,0-0.2,0-0.4,0
							c-0.7,0.1-1.4,0.2-2,0.2c-1.3,0-2.2-0.3-2.4-0.7c-0.1-0.3-0.2-1.1,1.7-3c4.1-4.3,27.2-37.5,30.1-42.5l11.5,4.5
							c-3.2,4.5-26.3,36.4-33.5,42.6C232.8,278.7,232,279,231.7,279L231.7,279z"/>
					</g>
					<g>
						<path d="M257.7,230l10.5,4.1c-4.3,6-26.1,36-33.1,42c-1.5,1.3-2.4,1.9-2.8,2.2c0,0,0-0.1,0-0.1c0.1-0.8,0.2-1.9-0.5-2.6
							c-0.2-0.3-0.7-0.6-1.4-0.6c-0.1,0-0.3,0-0.4,0c-0.7,0.1-1.3,0.2-1.9,0.2c-1.5,0-1.9-0.3-2-0.4c0,0-0.2-0.6,1.6-2.5
							C231.7,268,253.9,236.1,257.7,230 M257.2,228.8c-1.5,2.9-25.9,38.2-30.3,42.8c-3.5,3.6-1.5,4.6,1.1,4.6c0.7,0,1.4-0.1,2.1-0.2
							c0.1,0,0.2,0,0.3,0c1.9,0,0.1,3.6,1.3,3.6c0.6,0,1.7-0.7,4.1-2.7c7.9-6.8,34-43.2,34-43.2L257.2,228.8L257.2,228.8z"/>
					</g>
				</g>
				<g id="Shape_128">
					<g>
						<path class="st3" d="M217.8,255.7c-1.1,0-1.5-0.8-2.1-1.7c-0.5-0.8-1.1-1.7-2.1-2c-1.3-0.3-2.8-0.7-3.1-1.5
							c-0.2-0.6,0.1-1.7,2.3-3.8c5-4.8,16.4-17.5,19-21.3l9.8,2.8c-2.6,3.7-17,24.4-21.5,26.8C219.2,255.5,218.4,255.7,217.8,255.7
							L217.8,255.7z"/>
					</g>
					<g>
						<path d="M232.1,226l8.8,2.5c-5.2,7.5-17.2,24-21,26.1c-0.9,0.5-1.6,0.7-2.1,0.7c-0.7,0-1-0.4-1.7-1.5
							c-0.5-0.8-1.2-1.9-2.4-2.2l-0.1,0c-0.9-0.2-2.5-0.6-2.6-1.2c0-0.2-0.1-1,2.2-3.3C217.6,242.8,229,230.4,232.1,226
							 M231.7,224.8c-2.2,3.5-14.2,16.7-19.2,21.6c-5,4.8-1.4,5.6,1,6.2c1.9,0.5,1.9,3.7,4.4,3.7c0.7,0,1.5-0.2,2.6-0.8
							c5.1-2.8,22.1-27.5,22.1-27.5L231.7,224.8L231.7,224.8z"/>
					</g>
				</g>
				<g id="Shape_129">
					<g>
						<path class="st3" d="M211,246.2c-2,0-2.4-1.9-2.7-4.7c-0.3-2-0.5-3.8-1.8-4.3c0.8-1.3,7-5.4,11.6-8.5
							c4.7-3.2,9.2-6.2,10.9-7.8l9.1,6.6c-3.2,2.7-21.2,17.6-26.2,18.6C211.5,246.2,211.2,246.2,211,246.2z"/>
					</g>
					<g>
						<path d="M228.9,221.5l8.3,6c-6.5,5.5-21.3,17.3-25.5,18.1c-0.2,0-0.5,0.1-0.7,0.1c-1.4,0-1.8-1.3-2.2-4.3
							c-0.2-1.7-0.5-3.5-1.6-4.4c1.5-1.6,7-5.2,11.1-7.9C222.7,226.1,227,223.3,228.9,221.5 M228.8,220.2
							c-3.2,3.6-25.6,16.7-22.7,17.4c2.8,0.7,0.4,9.1,4.9,9.1c0.3,0,0.6,0,0.9-0.1c5.7-1.1,26.9-19.1,26.9-19.1L228.8,220.2
							L228.8,220.2z"/>
					</g>
				</g>
				<g id="Shape_127">
					<g>
						<path class="st3" d="M218.3,265.9c-0.3,0-0.7-0.4-1.3-1.3c-0.3-0.4-0.7-0.9-1.1-1.5c-0.9-1.1-2.1-1.7-3-2
							c-0.5-0.2-1-0.5-1.1-0.7c-0.1-0.9,3.3-4.1,7-7.4c12.1-10.8,20.7-23.5,22.2-25.8l7,3.9c-2.3,3.1-15.7,21.2-23.1,28.8l-0.2,0.2
							C221.1,264,219.1,265.9,218.3,265.9C218.3,265.9,218.3,265.9,218.3,265.9z"/>
					</g>
					<g>
						<path d="M241.3,227.9l6.1,3.4c-3,4.1-15.6,21.1-22.8,28.3l-0.1,0.1c-3.4,3.4-5.6,5.7-6.2,5.7c-0.2-0.1-0.6-0.6-0.9-1.1
							c-0.3-0.4-0.7-0.9-1.1-1.5c-1-1.2-2.2-1.8-3.1-2.2c-0.3-0.1-0.6-0.3-0.7-0.4c0.4-1.2,5.1-5.3,6.8-6.9
							C230.8,243.1,239.2,231,241.3,227.9 M241,226.5c-1.7,2.7-10.4,15.4-22.4,26.1c-12,10.7-6.1,7.1-3.1,10.8c1.4,1.7,1.9,3,2.8,3
							c1,0,2.7-1.7,7.1-6.2c8.2-8.4,23.5-29.3,23.5-29.3L241,226.5L241,226.5z"/>
					</g>
				</g>
				<g id="Shape_126">
					<g>
						<path class="st3" d="M219.1,272.8c-0.1,0-0.1,0-0.2,0c-0.2-0.2-0.1-0.8-0.1-1.3c0-1.3,0-3-1.7-3.6c-0.6-1.4,7.7-11.2,12.7-17
							c3.5-4.1,6.8-8,8.2-10.2c3.2-4.8,7.3-9.9,9-12.1c0.3-0.4,0.5-0.7,0.7-0.8c0.9,0.1,4.2,1.2,6.5,2.1L240,250.2
							c-0.5,0.9-14.3,19.3-19.2,21.9C219.8,272.7,219.3,272.8,219.1,272.8L219.1,272.8z"/>
					</g>
					<g>
						<path d="M247.9,228.3c0.9,0.2,3.2,1,5.5,1.8l-13.9,19.9l0,0l0,0.1c-0.7,1.3-14.3,19.1-18.9,21.7c-0.6,0.3-1,0.5-1.2,0.5
							c0-0.2,0-0.6,0-0.8c0-1.2,0-3.1-1.6-3.9c0.6-2.3,8-11.1,12.5-16.4c3.5-4.1,6.8-8.1,8.2-10.2c3.2-4.8,7.3-9.9,9-12.1
							C247.7,228.6,247.8,228.4,247.9,228.3 M247.6,227.2c-0.1,0-0.1,0-0.1,0c-0.2,0.4-5.8,7.1-9.8,13.2c-4,6.1-23.8,26.9-20.6,27.9
							c2.5,0.9,0.3,4.9,2.1,4.9c0.4,0,1-0.2,1.9-0.7c5-2.7,18.9-21.2,19.3-22.1l14.6-21C255,229.5,248.6,227.2,247.6,227.2
							L247.6,227.2z"/>
					</g>
				</g>
				<g id="Shape_125">
					<g>
						<path class="st3" d="M226.4,274.8c-1,0-1.4-1-2.1-2.8c-0.6-1.6-1.3-3.5-3-3.8c-0.7-1.5,8.5-12,15.2-19.7
							c6-6.9,12.1-14,14.5-17.8l6.6,1.7c-3,4.7-23.2,36.3-28.1,40.7C228.2,274.2,227.2,274.8,226.4,274.8L226.4,274.8z"/>
					</g>
					<g>
						<path d="M251.3,231.2l5.6,1.4c-4,6.3-22.9,35.8-27.7,40c-1.6,1.4-2.5,1.7-2.8,1.7c-0.6,0-1-1-1.6-2.5c-0.6-1.5-1.3-3.4-3-4
							c0.7-2.5,9-12,15.1-19C243,241.8,248.8,235.1,251.3,231.2 M250.8,230c-5.2,9-33.9,37.8-29.6,38.6c2.9,0.6,2.5,6.6,5.2,6.6
							c0.8,0,1.9-0.5,3.5-1.9c5.4-4.8,28.6-41.4,28.6-41.4L250.8,230L250.8,230z"/>
					</g>
				</g>
				<g id="Shape_123">
					<g>
						<path class="st3" d="M246.8,264.6c-1.2,0-1.9-1-2.6-2c-0.6-0.8-1.2-1.6-2-1.6c0.3-0.9,2.5-3.9,5.8-8.3
							c3.3-4.5,8.3-11.2,14.9-20.6l5.9,1.8c-1.4,2.9-8.5,17.1-15.9,26.1C250.3,263,248.2,264.6,246.8,264.6
							C246.8,264.6,246.8,264.6,246.8,264.6z"/>
					</g>
					<g>
						<path d="M263,232.6l5,1.5c-1.9,3.8-8.6,16.9-15.6,25.5c-3,3.7-4.7,4.5-5.6,4.5c-0.9,0-1.4-0.7-2.2-1.8c-0.5-0.7-1-1.4-1.7-1.7
							c0.7-1.3,2.8-4,5.4-7.6C251.6,248.5,256.6,241.8,263,232.6 M262.6,231.5c-16.4,23.4-22.7,30-20.6,30c0,0,0,0,0.1,0
							c0,0,0,0,0.1,0c1.4,0,2.1,3.7,4.7,3.7c1.4,0,3.4-1.2,6.4-4.8c8.4-10.2,16.3-26.7,16.3-26.7L262.6,231.5L262.6,231.5z"/>
					</g>
				</g>
			</g>
		</g>
		<g id="character_00000150800776200594462990000011125009456033411970_">
			<g id="suite_00000160190611532156586890000003254083620055347876_">
				<g id="Shape_112">
					<g>
						<polygon class="st8" points="305.2,452.9 293.2,463.8 294.4,544.1 305.6,543.3 						"/>
					</g>
				</g>
				<g id="Shape_115">
					<g>
						<path d="M333.2,542.6c-13.4,4-28,0-28,0c-4.4,1.2-10.5,0-10.5,0c-0.2,0.6-3.3,16.3,0.4,16.8c3.7,0.5,33-5,41.1-5.6
							C344.3,553.1,346.6,538.5,333.2,542.6z"/>
					</g>
				</g>
				<g id="Shape_113">
					<g>
						<polygon class="st8" points="262.6,475 249.5,544.8 261.9,545.9 276.4,470.8 						"/>
					</g>
				</g>
				<g id="Shape_114">
					<g>
						<path d="M282.4,546.3c-8.7,1.5-20.5-0.7-20.5-0.7c-4,1.2-12.3-1.5-12.3-1.5c-6.6,20.4,2.1,14.1,5.6,15.3
							c3.5,1.2,30.3,0.6,32.5-0.4C289.9,558.1,291.1,544.8,282.4,546.3z"/>
					</g>
				</g>
				<g id="Shape_104">
					<g>
						<path class="st4" d="M249.1,496.5c-8.3,0-19.8-6-30.9-11.8c-8.3-4.3-16.2-8.4-22-9.6c-2.6-0.5-4.7-0.9-6.6-1.3
							c-7.9-1.7-11.2-2.4-31.6-3.2c-5.5-0.2-8.7-1.5-9.7-3.8c-2-4.6,5-12.4,8.7-16.7c1.5-1.7,2.2-2.5,2.3-2.9
							c4.4-0.9,36.6-6.1,54-8.9l72.9,21.9c-2.9,4.5-22.8,35.3-36,36.2C249.9,496.5,249.5,496.5,249.1,496.5
							C249.1,496.5,249.1,496.5,249.1,496.5z"/>
					</g>
					<g>
						<path d="M213.3,438.9l72.2,21.7c-3.8,6-22.7,34.5-35.3,35.4c-0.3,0-0.7,0-1.1,0c-8.2,0-19.6-6-30.7-11.7
							c-8.4-4.4-16.3-8.5-22.2-9.6c-2.6-0.5-4.7-0.9-6.6-1.3c-7.9-1.7-11.2-2.4-31.7-3.2c-5.3-0.2-8.4-1.4-9.3-3.5
							c-1.8-4.3,5.2-12.3,8.6-16.1c1.3-1.4,2-2.3,2.3-2.8C164.6,446.8,193.6,442.1,213.3,438.9 M213.4,437.9c0,0-56.3,9-54.7,9
							c0,0,0,0,0,0c0,0,0,0,0,0c2.1,0-26,23.3-0.8,24.3c25.3,1,24.4,1.8,38.1,4.5c13.4,2.6,38.2,21.3,53,21.3c0.4,0,0.8,0,1.1,0
							c14.7-1,36.8-37,36.8-37L213.4,437.9L213.4,437.9z"/>
					</g>
				</g>
				<g id="Shape_103">
					<g>
						<path class="st4" d="M268.8,489.3c-4,0-9.6-5.2-15.5-10.7c-7.2-6.7-15.3-14.2-22.9-14.9l7.1-20.5l10.8-3.3l28.5,3.8l18.8,16.4
							c-2.1,3.1-17.3,25.7-25.3,29C269.8,489.3,269.3,489.3,268.8,489.3C268.8,489.3,268.8,489.3,268.8,489.3z"/>
					</g>
					<g>
						<path d="M248.4,440.4l28.2,3.8l18.4,16c-2.8,4.2-17.2,25.3-24.8,28.4c-0.4,0.2-0.8,0.2-1.3,0.2c-3.8,0-9.3-5.2-15.1-10.6
							c-7-6.6-14.9-13.9-22.6-15l6.9-19.7L248.4,440.4 M248.3,439.3l-11.1,3.4l-7.4,21.4c14,0.5,29.9,25.7,39.1,25.7
							c0.6,0,1.1-0.1,1.7-0.3c8.8-3.6,25.8-29.5,25.8-29.5L277,443.2L248.3,439.3L248.3,439.3z"/>
					</g>
				</g>
				<g id="Shape_102">
					<g>
						<path class="st4" d="M299.2,469.4c-3.1,0-9.9-2.9-17.7-6.2c-11.6-5-26-11.1-36.2-11.1c-1.4,0-2.8,0.1-4,0.4L198.3,437l6.5-1.5
							c0.3,0,38.9-3.4,68.4-3.4c23.8,0,31.1,2.2,33.1,4c4.9,4.5,4.1,12.2,3.3,16.4c-1.7,8.5-6.4,15.7-9.5,16.8
							C299.9,469.3,299.6,469.4,299.2,469.4L299.2,469.4z"/>
					</g>
					<g>
						<path d="M273.2,432.6c23.6,0,30.9,2.1,32.8,3.9c4.7,4.3,4,11.8,3.1,15.9c-1.6,8.1-6.2,15.3-9.2,16.4c-0.1,0-0.4,0.1-0.8,0.1
							c-3,0-9.7-2.9-17.5-6.2c-11.6-5-26.1-11.2-36.4-11.2c-1.4,0-2.7,0.1-3.9,0.4L200,437.1l4.8-1.1
							C206.7,435.8,244.3,432.6,273.2,432.6 M273.2,431.6c-29.9,0-68.5,3.4-68.5,3.4l-8.2,1.9l44.8,16.1c1.2-0.3,2.6-0.4,4-0.4
							c17,0,45.9,17.4,53.9,17.4c0.4,0,0.8-0.1,1.1-0.2c6.4-2.3,16-25.2,6.4-34C303.3,432.6,289.6,431.6,273.2,431.6L273.2,431.6z"
							/>
					</g>
				</g>
				<g id="Shape_105">
					<g>
						<path class="st4" d="M249.8,438.9l-39.6-4.9l-21.7,4.5l13.8,20.2l30.6,17.9l16.5-18.2c0,0,5.2-14.7,6-15.1L249.8,438.9z"/>
					</g>
				</g>
				<g id="Shape_952">
					<g>
						<path class="st8" d="M403.3,354.4c-4-1-7.1,2.1-9.7,3.4c-1.4,0.7-8.9-2.4-8.9-2.4l-5,10.5c0,0,8.7,2.7,13.2,1.4
							c4.5-1.3,4.8-3.2,5.9-5.9c1.1-2.7,5.3-3,8.2-3.2c2.9-0.2,1.3,0.7,0.4,3.2c-0.9,2.5-2.3,5.6-1.2,7.7c1.1,2.1,2.3-2.7,4.6-8.4
							C413.3,355,408,355.6,403.3,354.4z"/>
					</g>
				</g>
				<g id="Shape_108">
					<g>
						<path d="M317.8,347.3c-11.1-7.6-82.1-43.5-82.1-43.5l6.4,20.2c0,0,51.9,31.1,68.8,41.2c24-2.2,67.4,15.8,67.4,15.8
							c0.8-21.9,10.2-27.9,10.2-27.9C380.7,350.8,317.8,347.3,317.8,347.3z"/>
					</g>
				</g>
				<g id="Shape_109">
					<g>
						<path class="st4" d="M377.7,353.5c-1.6,5.5-8.8,21.3-8.8,21.3s3.9,2.7,6.5,3.2c1.6-15.3,8.8-24,8.8-24L377.7,353.5z"/>
					</g>
				</g>
				<g id="Shape_954">
					<g>
						<polygon points="402.2,339.9 400.3,340.7 407.4,369.6 409.5,372.3 409.9,368.3 						"/>
					</g>
				</g>
				<g id="Shape_955">
					<g>
						<polygon class="st4" points="407.8,369.4 409.3,371 409.3,368.5 						"/>
					</g>
				</g>
				<g id="Shape_953">
					<g>
						<path class="st8" d="M408.1,360.9c-3.4,1.4-11.4,1.3-11.4,1.3l-6.6,5.5c2.5,0.8,14.8,0.6,17.9-2.4
							C411,362.1,411.5,359.5,408.1,360.9z"/>
					</g>
				</g>
				<g id="Shape_111">
					<g>
						<path class="st8" d="M366.5,389.1c-5.8,0.2-23.6-7.8-23.6-7.8l-5.8,11.3c0,0,10.9,1.3,14.3,2.6c6.9,2.6,13,2.6,16.7,4.3
							c11.7,5.4,7.9-0.2,7.9-0.2s-2.7-0.9-4.1-1.5c-1.9-0.9,4.5-1.3,6.7-1.7c2.2-0.4,6.8,1.1,7.1,1.5c0.3,0.4,2.5,4.7,4.9-1
							C393,391,382.9,388.5,366.5,389.1z"/>
					</g>
				</g>
				<g id="Shape_100">
					<g>
						<path d="M276.8,358c-7.9-9.7-37.6-48-46.3-50.4c-8.7-2.5-17.4,10.9-3,20.5c16.4,10.9,22.9,43,47.4,49.4
							c24.5,6.4,46.9,23.2,61.6,31.2c1.3-12.3,14-25.8,14-25.8C328.3,374.5,284.6,367.7,276.8,358z"/>
					</g>
				</g>
				<g id="Shape_106">
					<g>
						<path class="st4" d="M345.7,383.5c0,0-3.5-1.8-6.1-2.2c-4.4,3.8-9.9,21.4-9.9,21.4c0.6,0.7,5.2,2.2,5.2,2.2
							C334.5,395.9,345.7,383.5,345.7,383.5z"/>
					</g>
				</g>
				<g id="Shape_107" class="st9">
				</g>
				<g id="Shape_101">
					<g>
						<path d="M215.5,306.5c-21.4,53.9-74.3,151.7-72.1,157.3c2.2,5.6,34,0,47.4-3.7c13.5-3.8,19.8-18.3,20.9-38.1
							c1.1-19.8,28.8-102.7,28.8-102.7C244.6,300.2,221.7,290.9,215.5,306.5z"/>
					</g>
				</g>
			</g>
			<g id="Shape_972">
				<g>
					<path d="M289.2,285.9c0,0-2.8-0.8-8,0.7c-5.1,1.5-7.3,1.8-7.3,1.8s3.8,0.7,7.5-0.7c3.8-1.3,6.3-1,7.4-0.8
						C289.9,287.2,289.6,285.7,289.2,285.9z"/>
				</g>
			</g>
			<g id="Shape_973">
				<g>
					<path d="M286.6,287.9c0,0-4.7,1.6-8.1,1c1.5,1.7,5.6,0.9,7.1,0.7S288.1,287.4,286.6,287.9z"/>
				</g>
			</g>
		</g>
	</g>
	<g id="eye">
		<path class="st10" d="M287.8,252.9c0,0,3.4-0.8,9.2,1.5s13.6,4.9,15.5,4.4c-1.4,2.2-6.6,10.4-10.4,13.5c-4-1.2-19.8-7.6-21.8-7.7
			C281.3,262.7,287,255.6,287.8,252.9z"/>
		<path class="st4" d="M288.8,254.2c0,0,4.9-0.5,9.1,1.5s11.3,4.4,12.6,4.3c-1.1,2.3-5.5,9.1-8.4,11.1c-3.8-1.3-17.4-6.3-20.3-7.2
			C283.2,262.3,287.5,257.4,288.8,254.2z"/>
		<g>
			<defs>
				<path id="SVGID_1_" d="M288.8,254.2c0,0,4.9-0.5,9.1,1.5s11.3,4.4,12.6,4.3c-1.1,2.3-5.5,9.1-8.4,11.1
					c-3.8-1.3-17.4-6.3-20.3-7.2C283.2,262.3,287.5,257.4,288.8,254.2z"/>
			</defs>
			<clipPath id="SVGID_00000034806693516114244030000009314551014275966648_">
				<use xlink:href="#SVGID_1_"  style="overflow:visible;"/>
			</clipPath>
			
				<linearGradient id="SVGID_00000147182661428164880770000005848075199087148941_" gradientUnits="userSpaceOnUse" x1="305.3853" y1="256.0498" x2="304.6955" y2="271.1261" gradientTransform="matrix(0.9167 0.3996 -0.3996 0.9167 121.4446 -99.3054)">
				<stop  offset="0" style="stop-color:#6C0D1E"/>
				<stop  offset="0.4282" style="stop-color:#832E43"/>
				<stop  offset="0.7801" style="stop-color:#92435A"/>
				<stop  offset="1" style="stop-color:#984B63"/>
			</linearGradient>
			
				<path style="clip-path:url(#SVGID_00000034806693516114244030000009314551014275966648_);fill:url(#SVGID_00000147182661428164880770000005848075199087148941_);" d="
				M302.5,264.7c-2.1,4.9-6.5,7.8-9.6,6.4s-4-6.5-1.9-11.4c2.1-4.9,6.5-7.8,9.6-6.4S304.7,259.7,302.5,264.7z"/>
			
				<ellipse transform="matrix(0.3996 -0.9167 0.9167 0.3996 -62.2202 429.646)" style="clip-path:url(#SVGID_00000034806693516114244030000009314551014275966648_);fill:#231F20;" cx="296.9" cy="262.3" rx="6.8" ry="4.1"/>
			
				<ellipse transform="matrix(0.3996 -0.9167 0.9167 0.3996 -57.5615 432.0294)" style="clip-path:url(#SVGID_00000034806693516114244030000009314551014275966648_);fill:#FFFFFF;" cx="301" cy="260" rx="1.7" ry="1.6"/>
		</g>
		<path class="st14" d="M291.5,247c0,0,10.8,4.4,14.1,3.6c1.9,1.4,5.4,3.4,6.5,3c-1.1-0.7-5.4-3.7-5.8-5
			C304.8,248.9,292.8,247.6,291.5,247z"/>
	</g>
	<g id="Layer_11">
		
			<linearGradient id="SVGID_00000149374302792244978980000000372556660601763732_" gradientUnits="userSpaceOnUse" x1="267.9594" y1="261.3801" x2="335.0005" y2="238.5684" gradientTransform="matrix(1.7295 0.8965 -0.8909 1.7593 -4.817 -488.6753)">
			<stop  offset="0" style="stop-color:#1B302F"/>
			<stop  offset="1" style="stop-color:#79918F"/>
		</linearGradient>
		<path style="fill:url(#SVGID_00000149374302792244978980000000372556660601763732_);" d="M354.4,230.2
			c-1.5,10.1-36.3,13.4-77.8,7.3s-74-19.1-72.5-29.2c1.5-10.1,36.3-13.4,77.8-7.3C323.4,207,355.9,220.1,354.4,230.2z"/>
		
			<linearGradient id="SVGID_00000102523476117857436480000013312160051467101613_" gradientUnits="userSpaceOnUse" x1="279.4596" y1="215.6387" x2="346.5007" y2="192.827" gradientTransform="matrix(0.8804 0.4742 -0.4742 0.8804 110.2611 -126.3051)">
			<stop  offset="0" style="stop-color:#1B302F"/>
			<stop  offset="1" style="stop-color:#79918F"/>
		</linearGradient>
		<path style="fill:url(#SVGID_00000102523476117857436480000013312160051467101613_);" d="M320,207.1c-0.8,5.1-18.8,6.3-40.1,2.8
			s-37.8-10.5-37-15.6c0.8-5.1,18.8-6.3,40.1-2.8C304.3,195,320.8,202,320,207.1z"/>
		
			<linearGradient id="SVGID_00000127025608635483760940000000309201417018804893_" gradientUnits="userSpaceOnUse" x1="282.5479" y1="227.0097" x2="350.4897" y2="203.8915" gradientTransform="matrix(0.8804 0.4742 -0.4742 0.8804 110.2611 -126.3051)">
			<stop  offset="0" style="stop-color:#1B302F"/>
			<stop  offset="1" style="stop-color:#79918F"/>
		</linearGradient>
		<path style="fill:url(#SVGID_00000127025608635483760940000000309201417018804893_);" d="M318.4,217.4c-4.7,3.8-13.9,4.4-42.9,2
			c-30.5-2.6-35.1-15.6-35.1-15.6l1.1-4.4l78,11.5C319.5,210.9,318.9,214.1,318.4,217.4z"/>
		<path class="st18" d="M318,220.2c-6.6,8.6-45,3.5-58.3-0.2c-14.7-4.1-20.4-11.5-20.4-11.5l1.2-4.9c0,0,3.9,10.4,34.5,14.9
			c28.8,4.3,39.8,1.7,43.8-2.9c-0.1,0.3-0.1,0.7-0.2,1C318.1,219.7,318.2,218.6,318,220.2z"/>
		<path class="st18" d="M311.2,215.7c-12.8,2.5-39.4-1.8-52.6-6.1c-12.7-4.1-17.1-10.3-17.1-10.3l1.4-4.9c0,0,0.7,8.7,33.4,14.7
			c28.6,5.3,40.1,2.9,43.7-2.6c-0.1,0.3,0,1.5-0.1,1.8C319.5,211.6,320,214,311.2,215.7z"/>
	</g>
</g>
</svg>
