<?xml version="1.0" encoding="UTF-8"?><svg id="a" xmlns="http://www.w3.org/2000/svg" viewBox="0 0 209.23 147.46"><defs><style>.b{fill:#939598;}.c{fill:#f8a175;}.d{fill:#a3d072;}.e{fill:#628eaf;}.f{fill:#e6e7e8;}</style></defs><g><polyline class="b" points="199.58 78 207.31 78 138.63 147.46 6.33 147.46 6.33 129.02"/><polygon class="f" points="202.23 62.47 137.89 126.81 9.65 126.81 9.65 142.82 138.19 142.82 202.23 78.77 202.23 62.47"/><polyline class="b" points="199.58 60.33 207.31 60.33 137.85 129.79 6.33 129.02 99.09 58.9"/></g><g><polyline class="d" points="196.93 58.12 204.66 58.12 135.98 127.58 3.68 127.58 3.68 109.14"/><polygon class="f" points="199.58 42.59 135.24 106.93 7 106.93 7 122.94 135.54 122.94 199.58 58.89 199.58 42.59"/><polyline class="d" points="196.93 40.45 204.66 40.45 135.2 109.91 3.68 109.14 96.44 39.02"/></g><g><polyline class="c" points="201.5 38.69 209.23 38.69 140.54 108.15 8.25 108.15 8.25 89.71"/><polygon class="f" points="204.15 23.16 139.81 87.5 11.56 87.5 11.56 103.5 140.1 103.5 204.15 39.46 204.15 23.16"/><polyline class="c" points="201.5 21.02 209.23 21.02 139.77 90.48 8.25 89.71 101.01 19.58"/></g><g><polyline class="e" points="193.25 19.1 200.98 19.1 132.29 88.56 0 88.56 0 70.12"/><polygon class="f" points="195.9 3.57 131.56 67.91 3.31 67.91 3.31 83.92 131.85 83.92 195.9 19.87 195.9 3.57"/><polyline class="e" points="193.25 1.44 200.98 1.44 131.52 70.9 0 70.12 92.76 0"/></g></svg>