<?xml version="1.0" encoding="UTF-8"?><svg xmlns="http://www.w3.org/2000/svg" viewBox="0 0 82.74 74.64"><defs><style>.e{fill:#040404;}.f{fill:#ded4c3;}</style></defs><g id="a"/><g id="b"><g id="c"><g id="d"><path class="e" d="M10.35,28.07c-5.2,.15-8.23-1.77-10.21-6.46-.22-.53-.26-.74,.46-.92,3.72-.91,7-2.79,10.18-4.84,4.24-2.73,8.36-5.65,12.81-8.03,5.9-3.15,12.01-5.77,18.61-7.11C43.41,.46,44.67,.49,45.83,0h6.56c.07,.06,.13,.18,.2,.18,5.09,.41,9.47,2.47,13.46,5.58,9.21,7.19,14.85,16.34,15.92,28.12,.13,1.49,.26,3.01,.78,4.45v5.33c-.49,.85-.45,1.85-.78,2.76-.34,.92-.69,1.83-1.29,2.62-.52,.69-1.17,1.03-2.02,.54-.92-.79-1.53-1.81-2.05-2.89-1.45-3-2.64-6.11-3.9-9.19-1.58-3.86-2.92-7.83-5.12-11.43-2.36-3.84-5.63-6.39-10.04-7.5-3.64-.92-7.36-1.33-11.05-2.01-3-.55-5.97-.42-8.95,.15-4.87,.92-9.31,2.95-13.71,5.11-4.44,2.18-8.69,4.79-13.48,6.23Z"/><path class="f" d="M10.35,28.07c4.79-1.44,9.03-4.05,13.48-6.23,4.4-2.16,8.85-4.19,13.71-5.11,2.98-.56,5.95-.69,8.95-.15,3.68,.67,7.41,1.09,11.05,2.01,4.4,1.11,7.68,3.65,10.04,7.5,2.2,3.59,3.54,7.56,5.12,11.43,1.26,3.08,2.45,6.19,3.9,9.19,.52,1.08,1.13,2.09,2.05,2.89-1.21,3.72-2.93,7.19-5.26,10.34-3.1,4.2-6.9,7.59-11.46,10.15-3.6,2.02-7.44,3.38-11.5,4.05-6.96,1.16-13.7,.32-20.18-2.48-4.4-1.91-8.25-4.61-11.58-8.07-4.93-5.13-7.99-11.21-9.35-18.18-.55-2.86-.78-5.74-.58-8.64,.2-2.95,.71-5.87,1.6-8.7Z"/></g></g></g></svg>