<?xml version="1.0" encoding="UTF-8"?><svg xmlns="http://www.w3.org/2000/svg" viewBox="0 0 79.37 78.28"><defs><style>.e{fill:#22371e;}.f{fill:#386432;}</style></defs><g id="a"/><g id="b"><g id="c"><g id="d"><circle class="f" cx="38.59" cy="39.15" r="35.46"/><path class="e" d="M67.34,29.85c2.38-1.16,3.86-3.4,5.24-5.57,.17-.26-.15-.49-.37-.52-.32-.04-.62,.11-.79,.37-1.21,1.9-2.54,3.96-4.63,4.98-.22,.11-.46,.39-.28,.64s.58,.22,.82,.1h0Z"/><path class="e" d="M65.45,27.73c2.14-2,4.32-3.97,6.52-5.91,.19-.16,.14-.34-.1-.39-.27-.05-.65,.05-.85,.23-2.2,1.94-4.38,3.91-6.52,5.91-.18,.17-.14,.34,.1,.39s.66-.05,.85-.23h0Z"/><path class="e" d="M65.09,23.99c.07-1.11,1.02-1.9,1.74-2.65l2.72-2.82c.19-.2,.1-.48-.15-.56-.29-.1-.65,.01-.85,.23l-2.88,2.98c-.79,.82-1.73,1.71-1.8,2.92-.04,.61,1.19,.42,1.22-.1h0Z"/><path class="e" d="M63.25,20.74c.51-2.71,2.59-4.84,2.92-7.62,.07-.61-1.16-.44-1.22,.1-.33,2.75-2.41,4.9-2.92,7.62-.11,.59,1.12,.43,1.22-.1h0Z"/><path class="e" d="M61.6,16.91c-.15-.74,.2-1.44,.49-2.09s.65-1.35,1.01-2.01c.71-1.3,1.53-2.54,2.43-3.71,.46-.6-.69-.72-1-.31-.98,1.28-1.88,2.63-2.65,4.04-.38,.7-.73,1.42-1.05,2.15s-.6,1.46-.44,2.26c.11,.52,1.32,.21,1.21-.32h0Z"/><path class="e" d="M57.45,13.8h-.05l.5,.18c-.04,.06-.04,.03,0-.11,.01-.09,.02-.19,.04-.28,.02-.14,.04-.28,.06-.42,.05-.32,.1-.65,.16-.97,.11-.6,.24-1.19,.38-1.79,.3-1.24,.69-2.45,1.14-3.64,.25-.64-.96-.62-1.15-.13-.54,1.41-.99,2.86-1.33,4.34-.17,.73-.31,1.47-.42,2.21-.08,.51-.37,1.63,.56,1.47,.26-.04,.63-.17,.67-.48,.03-.28-.32-.42-.55-.38h0Z"/><path class="e" d="M53.45,13.67c.39-2.74,.92-5.45,1.58-8.14,.11-.46-1.1-.28-1.21,.15-.66,2.69-1.19,5.4-1.58,8.14-.07,.49,1.15,.28,1.21-.15h0Z"/><path class="e" d="M49.76,12.19c.23-3.05,1.7-5.96,4.08-7.89,.63-.52-.33-.94-.8-.56-2.58,2.1-4.25,5.21-4.5,8.54-.05,.63,1.18,.46,1.22-.09h0Z"/><path class="e" d="M46.42,11.44l.09-6.11c.01-.94,.05-1.87,.04-2.81-.01-.85-.11-1.69-.6-2.41-.23-.34-1.35,.11-1.21,.32,.48,.72,.59,1.56,.6,2.41,.01,.94-.02,1.87-.04,2.81l-.09,6.11c0,.27,1.2,.08,1.21-.32h0Z"/><path class="e" d="M42.08,10.41c-.47-3.18-.47-6.4,.02-9.58,.06-.42-1.15-.21-1.2,.17-.49,3.23-.5,6.51-.02,9.73,.05,.36,1.27,.09,1.21-.32h0Z"/><path class="e" d="M37.72,9.7c.08-1.52-.1-3.04,.03-4.55s.59-2.84,1.33-4.09c.11-.19-.43-.13-.48-.12-.22,.04-.58,.12-.71,.33-.73,1.24-1.18,2.61-1.33,4.04-.16,1.57,.04,3.15-.04,4.72,0,.18,1.19,.03,1.21-.32h0Z"/><path class="e" d="M35.05,10.89c-.07-1.69-.38-3.36-.94-4.96-.47-1.36-1.08-2.81-2.37-3.58-.32-.19-1.44,.29-.97,.57,1.24,.74,1.8,2.32,2.23,3.62,.5,1.51,.77,3.08,.84,4.66,.02,.36,1.23,.12,1.21-.32h0Z"/><path class="e" d="M31.42,10.48c-.99-2.52-3-4.54-3.65-7.21-.09-.35-1.3-.04-1.21,.32,.65,2.66,2.65,4.69,3.65,7.21,.14,.37,1.33,0,1.21-.32h0Z"/><path class="e" d="M26.14,12.4c-.8-2.04-1.45-4.13-1.94-6.27-.08-.36-1.29-.05-1.21,.32,.49,2.13,1.14,4.23,1.94,6.27,.15,.37,1.34,0,1.21-.32h0Z"/><path class="e" d="M22.02,15.27c.3-1.48-.68-2.7-1.36-3.91-.56-1-1-2.17-2.07-2.74-.27-.14-.62-.1-.86,.08-.18,.13-.34,.46-.07,.6,.96,.51,1.35,1.6,1.85,2.5,.61,1.11,1.57,2.22,1.3,3.58-.12,.58,1.12,.42,1.22-.1h0Z"/><path class="e" d="M17.57,16.71h.03l-.63-.04,.03,.03-.04-.14v.04l.23-.23-.05,.03,.61-.16c-.24-.01-.52-.15-.73-.25-.27-.12-.51-.27-.75-.44-.48-.34-.91-.75-1.31-1.18-.84-.9-1.59-1.88-2.62-2.57-.23-.15-.56-.08-.79,.02-.09,.04-.55,.29-.34,.44,1.27,.84,2.11,2.14,3.21,3.16,.51,.48,1.1,.9,1.75,1.17,.34,.14,.73,.27,1.09,.27,.21,0,1.18-.25,.84-.63-.13-.15-.48-.07-.63-.04h-.03c-.16,.05-.59,.2-.53,.43s.54,.13,.67,.1h0Z"/><path class="e" d="M18.61,13.19c-1.28-1.38-2.49-2.81-3.62-4.31-.05-.07-.25-.07-.32-.07-.16,0-.33,.04-.47,.1s-.49,.21-.34,.4c1.14,1.49,2.35,2.93,3.62,4.31,.24,.26,1.38-.17,1.13-.44h0Z"/><path class="e" d="M14.72,19.84c-.17-.44-.72-.7-1.08-.96-.47-.32-.94-.64-1.42-.94-.95-.59-1.93-1.13-2.93-1.62-.24-.12-.63,0-.85,.13-.16,.09-.37,.29-.12,.41,.95,.46,1.88,.97,2.77,1.53,.44,.27,.87,.56,1.3,.85,.21,.15,.43,.3,.63,.45,.18,.13,.41,.25,.49,.47,.14,.37,1.33,0,1.21-.32h0Z"/><path class="e" d="M12.56,21.6c-.99-.98-2.49-1.07-3.8-1.07-1.53,0-3.05,.21-4.4,.97-.19,.11-.33,.33-.1,.48s.64,0,.86-.11c1-.56,2.18-.65,3.3-.64,1.06,.01,2.23,.06,3.03,.85,.3,.3,1.44-.15,1.12-.47h0Z"/><path class="e" d="M10.19,26.1c-.99,.01-1.99-.12-2.94-.42-.71-.22-1.6-.54-1.82-1.34-.11-.4-1.32-.08-1.21,.32,.25,.92,1.24,1.32,2.07,1.58,1.11,.35,2.26,.52,3.43,.51,.26,0,.65-.09,.8-.32s-.13-.34-.32-.33h0Z"/><path class="e" d="M8.84,30.12c-2.42-.51-4.99-1.07-6.91-2.73-.21-.18-.57-.12-.8-.02-.13,.05-.53,.31-.32,.49,2.04,1.76,4.72,2.37,7.3,2.92,.28,.06,.65-.03,.85-.23,.18-.18,.14-.38-.12-.44h0Z"/><path class="e" d="M7.25,33.29c-2.27,.2-4.53,.59-6.73,1.18-.21,.05-.58,.24-.51,.51s.51,.24,.7,.19c2.1-.56,4.24-.93,6.4-1.12,.24-.02,.64-.17,.68-.44s-.34-.33-.54-.32h0Z"/><path class="e" d="M6.93,36.2c-.58-.05-1.05,.17-1.56,.41-.42,.2-.84,.38-1.28,.54-.91,.34-1.85,.59-2.81,.78-.25,.05-.56,.32-.49,.6,.08,.31,.47,.32,.72,.28,.89-.17,1.77-.41,2.62-.71,.45-.16,.89-.33,1.33-.52,.21-.09,.41-.19,.62-.28,.12-.06,.29-.17,.43-.16,.29,.03,.66-.09,.78-.38,.12-.27-.11-.52-.38-.54h0Z"/><path class="e" d="M5.13,40.83c.23,1-.64,1.74-1.37,2.26-.84,.6-1.74,1.09-2.7,1.47-.18,.07-.49,.32-.31,.53s.59,.12,.81,.04c1.12-.44,2.19-1.03,3.16-1.75,.9-.67,1.9-1.62,1.62-2.86-.11-.46-1.32-.16-1.21,.32h0Z"/><path class="e" d="M5.63,45.83c-.39,.83-1.06,1.49-1.85,1.93-.86,.49-1.85,.69-2.82,.85-.17,.03-.66,.13-.71,.34s.39,.14,.49,.13c2.3-.37,5-1.18,6.08-3.46,.1-.21-.42-.14-.49-.13-.2,.03-.6,.12-.71,.34h0Z"/><path class="e" d="M9.77,50.4c-2.72-.48-5.7,.61-7.39,2.81-.17,.23,.15,.33,.32,.34,.27,0,.62-.1,.8-.32,1.3-1.68,3.43-2.56,5.53-2.19,.28,.05,.64-.04,.85-.23,.18-.16,.15-.36-.11-.41h0Z"/><path class="e" d="M10.8,52.8c-2.43,.78-4.63,2.21-6.27,4.17-.17,.2-.12,.45,.14,.53s.67,0,.85-.23c1.44-1.72,3.34-3.04,5.48-3.72,.22-.07,.57-.25,.5-.54-.07-.27-.5-.28-.7-.22h0Z"/><path class="e" d="M11.95,56.75l-.28-.08c-.19-.05-.45,.01-.63,.07-.11,.03-.44,.13-.47,.27-.23,1.15-.62,2.26-1.16,3.31-.47,.9-1.1,1.86-2.13,2.15-.11,.03-.6,.16-.55,.35s.57,.05,.65,.03c1.3-.36,2.3-1.12,2.98-2.29s1.14-2.44,1.4-3.76l-1.09,.34,.28,.08c.26,.07,.61-.04,.84-.15,.11-.05,.41-.24,.15-.31h0Z"/><path class="e" d="M14.28,59.87c-.54,2.21-2.82,3.13-4.73,3.88-.18,.07-.48,.31-.31,.53s.6,.12,.81,.04c2.21-.87,4.82-2.03,5.45-4.57,.12-.49-1.1-.31-1.21,.13h0Z"/><path class="e" d="M18.18,62.62c-1.57-.12-3.07,.91-4.24,1.85-1.05,.85-1.96,1.93-2.35,3.24-.06,.22,1.1,.08,1.19-.22,.32-1.1,1.01-2.03,1.85-2.79,.42-.38,.87-.71,1.34-1.02,.43-.28,.89-.63,1.42-.59,.27,.02,.63-.08,.85-.23,.19-.13,.17-.23-.07-.25h0Z"/><path class="e" d="M21.69,65.12c-2.75,1.08-4.91,3.49-5.44,6.43-.06,.32,1.14,.12,1.19-.2,.46-2.56,2.22-4.94,4.67-5.91,.12-.05,.5-.2,.35-.38-.14-.16-.64,0-.78,.05h0Z"/><path class="e" d="M22,66.14c-.19,2.67-1.43,5.26-3.49,6.99-.62,.53,.36,.84,.78,.48,2.25-1.9,3.71-4.63,3.92-7.59,.04-.58-1.18-.38-1.22,.11h0Z"/><path class="e" d="M24.63,68.07c.02,1.1-.4,2.15-.79,3.15-.43,1.08-.86,2.16-1.31,3.24-.11,.26,.39,.27,.52,.26,.26-.03,.58-.15,.69-.41,.46-1.12,.91-2.23,1.35-3.36,.41-1.04,.77-2.08,.75-3.21,0-.38-1.22-.14-1.21,.32h0Z"/><path class="e" d="M27.74,68.76c-.46,2.29-1.1,4.54-1.93,6.72-.23,.6,.98,.51,1.14,.08,.85-2.25,1.53-4.56,2-6.92,.11-.53-1.12-.35-1.22,.12h0Z"/><path class="e" d="M32.55,68.99c-.69,2.36-1.19,4.77-1.51,7.2-.08,.58,1.15,.4,1.22-.11,.32-2.44,.82-4.84,1.51-7.2,.08-.29-.36-.38-.55-.36-.29,.02-.59,.18-.67,.47h0Z"/><path class="e" d="M36.44,69.44c-.26,1.47-.42,2.96-.46,4.45-.04,1.17-.1,2.67,1.21,3.17,.24,.09,.63-.05,.84-.15,.13-.06,.39-.22,.15-.31-1.19-.46-1.02-2.16-.99-3.17,.05-1.41,.2-2.81,.44-4.19,.05-.28-1.14-.08-1.19,.21h0Z"/><path class="e" d="M40.61,71.62c-.09,1.18-.16,2.42,.2,3.57,.3,.96,.9,1.82,1.79,2.31,.24,.13,.64,.02,.85-.12,.17-.11,.36-.32,.11-.46-1.91-1.06-1.88-3.58-1.74-5.46,.03-.47-1.18-.24-1.21,.16h0Z"/><path class="e" d="M44.38,70.71c1.79,1.96,2.79,4.58,2.73,7.24-.01,.56,1.2,.34,1.21-.13,.07-2.8-.94-5.54-2.83-7.61-.32-.35-1.47,.11-1.11,.5h0Z"/><path class="e" d="M49.24,68.39c2.1,2.03,3.54,4.9,6.33,6.12,.28,.12,.61,.09,.86-.09,.16-.11,.36-.44,.08-.57-2.72-1.19-4.11-3.99-6.16-5.97-.21-.21-.56-.18-.81-.06-.16,.08-.51,.36-.3,.57h0Z"/><path class="e" d="M54.47,67.69c1.57,1.16,3.2,2.23,4.89,3.2,.27,.15,.62,.11,.87-.07,.19-.14,.33-.47,.06-.62-1.69-.97-3.32-2.04-4.89-3.2-.43-.32-1.49,.29-.93,.7h0Z"/><path class="e" d="M57.96,65.22c2.04,.4,3.77,1.7,5.86,1.96,.27,.03,.66-.1,.79-.36s-.11-.44-.36-.48c-1.01-.13-1.96-.53-2.89-.93s-1.93-.82-2.97-1.02c-.27-.05-.67,.11-.79,.36-.13,.28,.12,.43,.36,.48h0Z"/><path class="e" d="M61.96,62.86c.36-.31,.79-.36,1.24-.44,.61-.1,1.21-.19,1.82-.28,1.22-.17,2.44-.31,3.66-.43,.23-.02,.66-.08,.81-.29s-.13-.21-.28-.2c-1.52,.14-3.03,.32-4.54,.55-1.28,.19-2.78,.29-3.8,1.17-.21,.18,.19,.2,.28,.2,.27-.02,.6-.11,.81-.29h0Z"/><path class="e" d="M63.56,59.65c.17-.48,.56-.56,1.02-.62,.77-.1,1.53-.17,2.3-.23,1.5-.12,3-.19,4.5-.21,.22,0,.68-.09,.81-.3,.13-.22-.11-.23-.29-.23-1.9,.02-3.8,.13-5.69,.32-1.16,.12-3.36,.11-3.85,1.46-.09,.26,1.08,.13,1.19-.2h0Z"/><path class="e" d="M65.82,54.82c2.16,1.39,4.79,1.95,7.34,1.61,.23-.03,.64-.16,.68-.44s-.34-.34-.54-.31c-2.29,.3-4.59-.24-6.53-1.49-.38-.24-1.47,.29-.95,.63h0Z"/><path class="e" d="M68.42,53.11c1.79,.45,3.65,.45,5.44,.06,.18-.04,.58-.21,.52-.46s-.53-.17-.68-.13c-1.5,.33-3.06,.26-4.54-.11-.27-.07-.65,.04-.85,.23-.19,.18-.13,.36,.11,.42h0Z"/><path class="e" d="M69.9,48.58c.34,.53,.68,1.07,1.2,1.44,.55,.4,1.21,.59,1.87,.72,.72,.14,1.45,.23,2.18,.26,.69,.03,1.43,0,1.97-.48,.19-.17,.12-.38-.12-.44-.27-.07-.65,.04-.85,.23-.04,.04-.03,.04,.03,0-.03,0-.07,0-.1,0-.11-.02-.24,0-.35,0-.28,0-.55-.03-.82-.05-.55-.05-1.09-.14-1.63-.28-.49-.12-.97-.31-1.34-.66s-.65-.79-.92-1.22c-.22-.34-1.39,.05-1.12,.48h0Z"/><path class="e" d="M70.68,45.87c2.3,.06,4.6-.02,6.89-.23,.25-.02,.64-.08,.8-.3,.15-.21-.13-.28-.3-.26-2.29,.22-4.59,.3-6.89,.23-.24,0-.66,.1-.8,.3-.16,.23,.14,.26,.3,.26h0Z"/><path class="e" d="M70.71,42.65c.35,.53,1.29,.07,1.74-.08,.74-.25,1.49-.51,2.22-.78,1.45-.54,2.89-1.11,4.31-1.73,.13-.06,.5-.21,.34-.4-.14-.17-.64-.03-.79,.03-1.16,.5-2.33,.98-3.51,1.43-.58,.22-1.16,.43-1.74,.64-.29,.1-.58,.21-.88,.31-.14,.05-.27,.09-.41,.14-.09,.03-.18,.06-.27,.09-.22,.06-.18,.07,.11,0l.11,.1-.04-.06c-.22-.34-1.35,.11-1.21,.32h0Z"/><path class="e" d="M71.6,39.23c.41-.85,1.18-1.46,1.97-1.95,.93-.57,1.92-1.06,2.74-1.78,.18-.15,.15-.32-.1-.36-.26-.04-.65,.05-.85,.23-1.61,1.42-3.97,1.97-4.96,4.04-.11,.23,.41,.21,.51,.2,.24-.03,.58-.14,.7-.38h0Z"/><path class="e" d="M69.1,35.5c2.99-1.36,6.07-2.77,8.3-5.26,.19-.21-.16-.27-.3-.27-.26,0-.62,.1-.8,.31-2.05,2.29-4.89,3.61-7.64,4.85-.13,.06-.5,.21-.34,.4,.14,.17,.64,.03,.79-.03h0Z"/><path class="e" d="M69.92,31.81c1.56-1.76,3.44-3.21,5.55-4.25,.22-.11,.46-.37,.29-.61s-.59-.2-.82-.09c-2.28,1.13-4.33,2.7-6.02,4.6-.19,.21-.1,.48,.15,.58,.28,.1,.66,0,.85-.23h0Z"/><path class="e" d="M28.78,15.01c-.37-2.38-1.06-4.7-2.04-6.9-.15-.35-1.33,.04-1.21,.32,.98,2.2,1.66,4.52,2.04,6.9,.05,.31,1.27,.05,1.21-.32h0Z"/><path class="e" d="M24.42,16.98c-.66-2.22-1.33-4.5-1.03-6.84,.08-.65-1.15-.51-1.23,.07-.3,2.42,.37,4.8,1.05,7.09,.18,.59,1.38,.27,1.21-.32h0Z"/><path class="e" d="M21.33,19.72c.35-3.05-2-5.37-4.31-6.94-.25-.17-.63-.11-.87,.07-.2,.16-.31,.47-.06,.64,2.11,1.43,4.34,3.52,4.02,6.32-.07,.63,1.16,.47,1.22-.09h0Z"/><path class="e" d="M18.37,21.25c-1.89-.77-2.97-2.6-3.95-4.28-.05-.09-.25-.11-.33-.11-.16,0-.33,.03-.47,.09-.2,.09-.45,.27-.32,.5,1.01,1.75,2.15,3.61,4.11,4.4,.27,.11,.61,.05,.86-.11,.15-.1,.38-.38,.1-.49h0Z"/><path class="e" d="M16.64,24.26c-1.59-1.83-3.63-3.24-5.9-4.11-.26-.1-.62,0-.85,.13-.14,.08-.39,.3-.13,.4,2.22,.85,4.18,2.24,5.74,4.03,.23,.27,1.38-.15,1.13-.44h0Z"/><path class="e" d="M14.48,27.01c-.92-.95-1.9-1.83-2.95-2.63s-2.11-1.61-3.42-1.78c-.27-.04-.66,.1-.79,.36-.13,.27,.12,.43,.36,.46,.56,.08,1.06,.35,1.53,.65,.5,.32,.99,.68,1.47,1.04,.96,.73,1.86,1.54,2.7,2.41,.21,.21,.56,.18,.81,.07,.17-.08,.51-.36,.3-.58h0Z"/><path class="e" d="M14.38,29.92c-2.54-.18-4.92-1.45-6.55-3.4-.19-.23-1.33,.19-1.14,.41,1.71,2.06,4.24,3.3,6.9,3.49,.27,.02,.63-.07,.85-.23,.18-.13,.17-.25-.07-.27h0Z"/><path class="e" d="M13.04,33.55c-2.5-.24-4.98-.62-7.44-1.14-.28-.06-.6,.02-.85,.15-.1,.05-.42,.29-.14,.34,2.53,.53,5.08,.92,7.65,1.17,.27,.03,.63-.06,.85-.23,.18-.14,.17-.27-.08-.3h0Z"/><path class="e" d="M12.23,36.05c-2.1-.42-4.17-.93-6.23-1.54-.28-.08-.6-.03-.85,.12-.13,.07-.4,.35-.11,.44,2.12,.63,4.27,1.16,6.45,1.6,.27,.06,.65-.04,.85-.23,.19-.17,.14-.34-.11-.39h0Z"/><path class="e" d="M12.66,38.71c-2.78-1.17-6.09,.02-7.51,2.67-.14,.27,.13,.48,.37,.51,.3,.04,.64-.1,.79-.37,.5-.93,1.3-1.68,2.29-2.08,1.08-.44,2.3-.36,3.37,.09,.51,.21,1.4-.52,.7-.82h0Z"/><path class="e" d="M11.06,42.01c-.53,.14-1,.43-1.4,.81-.35,.34-.64,.73-.97,1.08-.69,.7-1.58,1.16-2.54,1.28-.23,.03-.64,.15-.68,.42s.35,.31,.53,.29c1.19-.15,2.31-.62,3.25-1.38,.39-.32,.71-.71,1.04-1.09,.16-.18,.33-.37,.51-.53,.15-.13,.31-.21,.43-.25,.19-.05,.58-.22,.52-.49s-.52-.21-.69-.16h0Z"/><path class="e" d="M10.56,46.01c-1.41,1.79-3.75,2.36-5.86,2.86-.2,.05-.58,.23-.51,.5s.51,.21,.69,.17c2.51-.6,5.14-1.36,6.81-3.47,.18-.23-.16-.39-.34-.4-.3-.02-.61,.11-.79,.34h0Z"/><path class="e" d="M11.99,48.34c-.36,.94-1,1.78-1.79,2.4-.4,.31-.82,.56-1.27,.76s-.89,.31-1.36,.36c-.24,.03-.64,.16-.68,.44s.34,.33,.53,.31c2.56-.31,4.85-1.99,5.78-4.4,.1-.27-.38-.33-.53-.31-.28,.03-.57,.17-.68,.44h0Z"/><path class="e" d="M14.09,51.59c-1.69,.58-3.1,1.69-4.34,2.95-1.16,1.19-2.51,2.58-2.55,4.34,0,.2,1.2,.04,1.21-.32,.03-1.62,1.3-2.92,2.36-4.01s2.27-2.16,3.75-2.66c.11-.04,.49-.19,.36-.35-.13-.16-.65,.02-.78,.06h0Z"/><path class="e" d="M16.97,54.44c-.32,.25-.68,.41-1.03,.6s-.67,.38-1,.59c-.62,.39-1.21,.83-1.75,1.33-1.08,.99-1.97,2.19-2.42,3.59-.11,.33,1.08,.17,1.2-.18,.43-1.33,1.26-2.49,2.31-3.42,.52-.46,1.07-.87,1.66-1.23,.65-.4,1.38-.69,1.98-1.16,.19-.15,.14-.31-.09-.35-.27-.04-.64,.06-.85,.23h0Z"/><path class="e" d="M17.74,56.59c-.85,2.66-2.85,4.84-5.46,5.86-.23,.09-.45,.38-.29,.61,.17,.26,.59,.18,.82,.09,2.84-1.11,5.15-3.52,6.08-6.43,.21-.66-.99-.63-1.15-.13h0Z"/><path class="e" d="M19.55,59.72c-.23,1.35-.78,2.51-1.91,3.33s-2.51,1.16-3.84,1.52c-.23,.06-.57,.27-.5,.56s.49,.29,.71,.24c1.57-.42,3.18-.86,4.5-1.85,.58-.43,1.09-.96,1.48-1.59,.43-.7,.65-1.51,.78-2.31,.1-.59-1.13-.42-1.22,.1h0Z"/><path class="e" d="M24.07,61.63c-2.61,1.11-4.79,3.05-6.11,5.57-.12,.23,.42,.2,.5,.19,.24-.04,.57-.13,.7-.37,1.15-2.2,3.06-4.03,5.35-5,.13-.06,.5-.22,.34-.41-.14-.18-.63-.04-.79,.03h0Z"/><path class="e" d="M26.89,62.53c-2.73,2-3.98,5.46-3.03,8.73,.1,.33,1.3,0,1.21-.32-.89-3.06,.18-6.41,2.76-8.3,.2-.15,.14-.29-.09-.33-.27-.05-.64,.07-.85,.23h0Z"/><path class="e" d="M31.01,63.96c-.55,2.52-1.16,5.22-3.11,7.06-.2,.19,.18,.21,.29,.21,.26-.02,.61-.1,.81-.29,2-1.88,2.64-4.6,3.21-7.18,.06-.28-1.13-.1-1.19,.21h0Z"/><path class="e" d="M35.11,64.49c-2.09,2.52-2.91,5.95-2.12,9.13,.14,.55,1.35,.24,1.21-.32-.72-2.93-.01-6.13,1.92-8.46,.49-.59-.66-.77-1.01-.35h0Z"/><path class="e" d="M40.09,65.04c-.98,1.4-1.7,2.97-2.08,4.63-.19,.84-.3,1.7-.32,2.56s.01,1.7,.43,2.45c.21,.38,1.37-.03,1.21-.32-.77-1.4-.45-3.37-.11-4.86,.37-1.61,1.05-3.12,1.99-4.47,.16-.23-.14-.31-.32-.31-.25,0-.64,.1-.8,.32h0Z"/><path class="e" d="M42.81,66.06c-.5,1.68-.87,3.47-.46,5.21,.33,1.4,1.17,2.72,2.46,3.4,.28,.15,.62,.13,.87-.07,.18-.14,.34-.5,.06-.64-2.84-1.5-2.54-5.14-1.77-7.74,.2-.68-1-.68-1.16-.15h0Z"/><path class="e" d="M46.68,66.02c.67,2.31,1.79,4.47,3.27,6.37,.22,.28,1.38-.12,1.13-.45-1.45-1.86-2.53-3.98-3.19-6.24-.1-.36-1.31-.03-1.21,.32h0Z"/><path class="e" d="M50.52,64.51c1.65,1.15,3.45,3.12,2.65,5.31-.24,.65,.97,.64,1.15,.14,.43-1.19,.24-2.46-.35-3.55s-1.54-1.9-2.53-2.59c-.25-.17-.64-.1-.87,.07-.2,.15-.31,.45-.06,.62h0Z"/><path class="e" d="M54.42,63.81c-.43,.83,.28,1.71,.92,2.19,.77,.57,1.73,.87,2.69,.9,.29,0,.61-.07,.85-.23,.05-.04,.16-.1,.14-.18s-.16-.09-.21-.09c-.84-.02-1.65-.31-2.33-.81-.58-.43-1.26-1.23-.87-1.99,.1-.2-.42-.13-.48-.12-.21,.04-.6,.12-.71,.33h0Z"/><path class="e" d="M56.55,60.95l.05-.26-.97,.42c1.02,.27,1.87,.94,2.77,1.46,.98,.58,2.04,1.01,3.14,1.31,.28,.08,.65-.02,.85-.23,.19-.19,.13-.42-.13-.49-1.09-.3-2.12-.74-3.09-1.33-.91-.55-1.78-1.17-2.82-1.45-.3-.08-.9,.05-.97,.42l-.05,.26c-.1,.52,1.13,.33,1.21-.13h0Z"/><path class="e" d="M58.69,57.58c.58-.16,1.21,.2,1.7,.46s.99,.55,1.42,.92c.38,.33,.68,.75,.79,1.25,.07,.32,.13,.62,.38,.84s.65,.33,.99,.27c.27-.04,.63-.18,.66-.5,.03-.29-.32-.45-.56-.41-.11,.02-.09,0-.04,.02-.04-.02-.07-.06-.1-.09-.08-.12-.09-.29-.12-.42-.06-.28-.17-.55-.31-.8-.29-.5-.74-.9-1.21-1.22-.5-.35-1.05-.64-1.6-.9-.7-.33-1.47-.5-2.23-.28-.24,.07-.57,.29-.49,.59s.48,.33,.72,.26h0Z"/><path class="e" d="M61.75,54.56c.64-.17,1.31,.29,1.79,.67,.58,.46,1.08,1.01,1.72,1.4,1.18,.73,2.64,.99,4.01,.78,.24-.04,.64-.16,.68-.45s-.34-.35-.54-.32c-1.47,.23-2.85-.25-3.96-1.22-.54-.47-1.07-1-1.72-1.32s-1.42-.44-2.16-.24c-.21,.06-.58,.24-.51,.52s.51,.24,.7,.19h0Z"/><path class="e" d="M63.5,51.36c2.57,.54,4.78,2.32,6,4.62,.24,.46,1.4,.03,1.11-.53-1.35-2.57-3.86-4.36-6.68-4.95-.58-.12-1.22,.69-.42,.86h0Z"/><path class="e" d="M62.99,48.98c.39,.5,1.24,.46,1.8,.51,.77,.07,1.55,.09,2.33,.04,1.55-.09,3.08-.44,4.43-1.23,.18-.1,.34-.31,.11-.45s-.64,0-.85,.12c-1.02,.59-2.18,.85-3.34,.91-.6,.03-1.21,.02-1.81-.02-.43-.03-1.25,.04-1.54-.34-.24-.31-1.41,.1-1.12,.47h0Z"/><path class="e" d="M64.24,47.37c2.48-1.61,5.44-2.1,8.33-1.47,.27,.06,.6-.04,.84-.16,.1-.05,.42-.24,.15-.3-3.48-.76-7.26-.02-10.24,1.91-.2,.13-.14,.22,.07,.25,.25,.04,.64-.09,.85-.23h0Z"/><path class="e" d="M63.7,44.45c1.85-.46,3.41-1.61,5-2.62l5.26-3.35c.22-.14,.12-.26-.08-.3-.26-.05-.63,.09-.85,.23l-4.76,3.04c-1.46,.93-2.96,2.15-4.67,2.58-.12,.03-.6,.17-.55,.37s.56,.07,.66,.05h0Z"/><path class="e" d="M64.33,39.6l-.3,.02,.05,.84c1.43-.27,2.32-1.41,3.34-2.33,1.09-.98,2.46-1.57,3.92-1.69,.26-.02,.63-.18,.67-.48s-.32-.41-.56-.39c-1.57,.13-3.11,.69-4.37,1.65-1.03,.78-1.88,2.18-3.22,2.43-.23,.04-.52,.26-.5,.51,.02,.27,.33,.34,.55,.33l.3-.02c.26-.01,.63-.19,.67-.48s-.32-.4-.56-.39h0Z"/><path class="e" d="M63.37,36.95c2.25-1.5,4.94-2.08,7.55-2.64,.17-.04,.67-.13,.7-.35s-.37-.18-.49-.15c-3.02,.64-6.09,1.33-8.69,3.06-.2,.14-.13,.28,.08,.31,.27,.04,.63-.08,.85-.23h0Z"/><path class="e" d="M62.7,34.87c2.68-.99,5.39-2.68,6.22-5.59,.08-.28-.36-.36-.54-.34-.28,.03-.59,.17-.67,.46-.73,2.57-3.17,3.98-5.52,4.85-.21,.08-.46,.34-.3,.57,.17,.24,.59,.14,.81,.06h0Z"/><path class="e" d="M60.14,33.78c2.84-1.84,5.4-4.8,8.89-5.36,.19-.03,.66-.14,.69-.38s-.36-.23-.51-.2c-3.94,.63-6.6,3.59-9.8,5.66-.17,.11-.35,.27-.12,.41,.2,.13,.67-.01,.85-.13h0Z"/><path class="e" d="M60.64,30.65c2.3-2.31,4.36-4.85,6.15-7.59,.11-.17-.43-.1-.48-.09-.21,.04-.58,.11-.71,.31-1.76,2.69-3.78,5.2-6.04,7.48-.18,.18,.17,.18,.28,.17,.24-.02,.63-.1,.81-.28h0Z"/><path class="e" d="M58.28,27.71c1.62-.75,3.57-1.38,4.63-2.92,.49-.71,.83-1.52,1.1-2.34,.32-.94,.54-1.9,.47-2.89-.04-.63-1.26-.45-1.22,.09,.06,.88-.1,1.76-.38,2.59-.25,.75-.54,1.53-.98,2.19s-1.03,1.08-1.72,1.42c-.8,.4-1.62,.76-2.44,1.14-.23,.11-.45,.38-.28,.62s.59,.2,.82,.09h0Z"/><path class="e" d="M57.24,25.96c.34-.78,.49-1.62,.7-2.44,.19-.72,.45-1.42,.81-2.07,.34-.61,.78-1.17,1.34-1.58,.64-.47,1.41-.71,2.17-.94,.23-.07,.57-.27,.49-.57s-.49-.31-.71-.25c-.87,.27-1.74,.55-2.51,1.05-.69,.45-1.25,1.07-1.7,1.76s-.74,1.42-.97,2.19c-.27,.9-.39,1.84-.77,2.7-.27,.63,.94,.62,1.15,.13h0Z"/><path class="e" d="M56.35,22.55c.52-1.45,1.21-2.84,2.07-4.12,.79-1.19,1.84-2.29,2.1-3.74,.09-.49-1.13-.3-1.21,.14-.26,1.46-1.4,2.57-2.17,3.78-.82,1.28-1.48,2.65-1.99,4.08-.1,.27,.38,.3,.53,.29,.26-.03,.59-.16,.68-.43h0Z"/><path class="e" d="M53.4,21.98c.86-1.58,1.71-3.17,2.36-4.84,.32-.81,.61-1.66,.78-2.51,.13-.64,.14-1.4-.4-1.86-.22-.18-.56-.14-.8-.03-.13,.06-.53,.33-.31,.52,.53,.45,.39,1.19,.24,1.79-.19,.81-.46,1.61-.77,2.39-.62,1.56-1.43,3.03-2.22,4.5-.28,.53,.93,.43,1.13,.05h0Z"/><path class="e" d="M51.91,18.93c.19-1.49-.13-3.14,.49-4.55,.55-1.25,1.82-1.94,3.04-2.4,.25-.09,.43-.42,.28-.66-.18-.27-.58-.2-.83-.11-1.42,.54-2.82,1.4-3.55,2.79-.81,1.54-.45,3.35-.66,5.01-.08,.65,1.15,.5,1.23-.08h0Z"/><path class="e" d="M47.95,19.59c-.75-2.04-.78-4.21-.5-6.34,.13-1.01,.35-2,.54-3s.31-1.95-.11-2.87c-.2-.44-1.39-.07-1.21,.32,.46,1,.24,2.05,.02,3.08s-.4,2.01-.51,3.03c-.23,2.05-.16,4.14,.56,6.09,.16,.45,1.36,.1,1.21-.32h0Z"/><path class="e" d="M43.98,16.75c-.58-1.67-.86-3.41-1.05-5.16-.1-.87-.17-1.73-.26-2.6-.06-.53,.02-1.6-.69-1.72-.28-.04-.59,.03-.84,.15-.09,.04-.43,.27-.15,.32,.33,.05,.35,.52,.39,.79,.05,.4,.09,.81,.13,1.21,.08,.84,.16,1.68,.26,2.51,.19,1.64,.47,3.26,1.01,4.82,.1,.29,1.3-.07,1.21-.32h0Z"/><path class="e" d="M38.55,16.99c-.35-3.05,.37-6.14,2.03-8.72,.13-.21-.43-.18-.5-.17-.25,.04-.56,.13-.7,.36-1.68,2.62-2.39,5.77-2.04,8.86,.03,.29,1.25,.05,1.21-.32h0Z"/><path class="e" d="M35.58,15.64c-.05-1.38-.31-2.74-.6-4.1-.23-1.06-.54-2.37-1.84-2.49-.28-.03-.63,.04-.85,.23-.18,.14-.16,.33,.09,.35,1.13,.11,1.29,1.76,1.46,2.6,.26,1.23,.48,2.47,.53,3.73,0,.3,1.22,.08,1.21-.32h0Z"/><path class="e" d="M33.39,17.04c.48-1.38,.1-2.89-.66-4.09-.37-.59-.82-1.14-1.44-1.46-.72-.37-1.57-.35-2.31-.05-.14,.06-.5,.22-.34,.41,.14,.18,.63,.04,.79-.03,.42-.17,1.01,.23,1.31,.49,.45,.39,.79,.9,1.06,1.42,.55,1.07,.8,2.32,.4,3.48-.08,.24,.39,.21,.5,.19,.21-.03,.61-.13,.7-.37h0Z"/><path class="e" d="M28.03,19.01c.09-.02-.05-.03-.07-.04-.09-.04-.18-.07-.28-.12-.14-.08-.28-.17-.41-.27-.23-.18-.45-.38-.66-.59-.45-.46-.82-.99-1.09-1.57-.56-1.21-.63-2.61-.06-3.83,.09-.2-.41-.13-.48-.12-.2,.03-.61,.12-.71,.33-.65,1.42-.49,3.07,.29,4.4,.36,.62,.83,1.17,1.38,1.63,.66,.56,1.34,.81,2.19,.57,.11-.03,.6-.16,.55-.35s-.56-.06-.65-.03h0Z"/><path class="e" d="M25.91,21.23c-.99,.31-1.76-.32-2.42-.98-.77-.77-1.56-1.44-2.71-1.45-.26,0-.63,.2-.67,.48-.04,.32,.32,.39,.56,.39,.43,0,.86,.33,1.17,.59,.4,.33,.74,.73,1.13,1.07,.88,.77,2.03,1.06,3.16,.71,.23-.07,.57-.27,.49-.57s-.49-.32-.71-.25h0Z"/><path class="e" d="M23.02,23.75c-.71-.58-1.38-1.19-2.01-1.85-.6-.62-1.12-1.3-1.7-1.93-.54-.59-1.16-1.07-1.96-1.23s-1.6,.07-2.19,.63c-.21,.2-.08,.5,.16,.59,.3,.12,.63-.02,.85-.23,.31-.3,.91-.1,1.22,.09,.6,.36,1.03,.94,1.47,1.47,.97,1.15,2.05,2.21,3.22,3.16,.42,.34,1.47-.26,.93-.7h0Z"/><path class="e" d="M20.26,26.23c-1.01,.83-2.32,1.45-3.65,1.08s-2.03-1.6-2.21-2.89c-.08-.57-1.29-.27-1.21,.32,.23,1.65,1.3,3.05,2.96,3.45,1.77,.42,3.55-.29,4.92-1.4,.21-.17,.3-.45,.06-.64s-.65-.11-.87,.07h0Z"/><path class="e" d="M18.15,32.97c-.69,.08-1.42-.41-2.04-.66s-1.25-.46-1.89-.63c-1.31-.35-2.65-.5-4-.41-.22,.01-.66,.09-.81,.28s.13,.18,.28,.17c1.39-.09,2.78,.16,4.1,.57,.68,.21,1.34,.48,1.99,.77,.6,.26,1.18,.45,1.84,.37,.23-.03,.66-.08,.81-.28s-.13-.19-.28-.17h0Z"/><path class="e" d="M17.29,37.07l.22-.06s.75-.3,.52-.39c-1.51-.59-3.12-.76-4.74-.78s-3.14,.04-4.53,.83c-.21,.12-.14,.24,.07,.26,.28,.03,.61-.09,.85-.23,.97-.55,2.35-.4,3.43-.36,1.29,.05,2.58,.21,3.78,.68l.52-.39-.22,.06c-.11,.03-.6,.16-.55,.35s.57,.05,.65,.02h0Z"/><path class="e" d="M18.28,39.62c-2.09,.18-4.16,.53-6.18,1.09-1.75,.49-3.58,1.05-4.92,2.35-.21,.2,.18,.27,.3,.27,.28,0,.6-.11,.8-.31,1.14-1.11,2.81-1.54,4.31-1.93,1.7-.45,3.43-.75,5.19-.89,.23-.02,.68-.08,.8-.31,.12-.22-.1-.29-.3-.27h0Z"/><path class="e" d="M17.51,42.52c-1.78-.41-3.52,.4-4.97,1.35-1.32,.86-2.66,1.95-3.15,3.51-.21,.69,.99,.73,1.16,.17,.41-1.31,1.49-2.19,2.59-2.93,1.16-.78,2.53-1.49,3.96-1.16,.63,.14,1.2-.75,.4-.93h0Z"/><path class="e" d="M17.23,46.86c-.16,.49-.32,.99-.59,1.44-.28,.48-.7,.81-1.17,1.09-.95,.57-1.97,1.01-3.04,1.3-.11,.03-.6,.16-.55,.35s.56,.05,.65,.03c1.32-.37,2.6-.89,3.78-1.59,.52-.31,1.01-.67,1.37-1.17s.55-1.09,.73-1.66c.07-.21-.4-.13-.48-.12-.17,.03-.64,.12-.71,.33h0Z"/><path class="e" d="M19.22,51.05c-.38,.64-1.13,.86-1.76,1.16-.77,.37-1.49,.82-2.16,1.34-1.31,1.01-2.4,2.28-3.19,3.74-.28,.52,.93,.42,1.13,.05,.78-1.43,1.86-2.7,3.18-3.66,.64-.47,1.33-.84,2.05-1.17s1.46-.71,1.88-1.41c.15-.25-.13-.37-.34-.39-.26-.02-.65,.1-.79,.34h0Z"/><path class="e" d="M21.42,53.36c.34,1.15-.42,2.16-1.13,2.98-.83,.96-1.67,1.91-2.5,2.86-.18,.21-.11,.47,.15,.56,.28,.09,.66,0,.85-.23,.9-1.04,1.83-2.06,2.71-3.11,.78-.94,1.49-2.12,1.13-3.39-.16-.53-1.36-.21-1.21,.32h0Z"/><path class="e" d="M25.17,55c-.4,1.73-.98,3.56-2.31,4.81s-3.01,1.78-4.18,3.12c-.19,.22,.16,.3,.31,.31,.27,0,.62-.1,.8-.32,1.18-1.37,3.02-1.93,4.28-3.22s1.9-3.12,2.3-4.87c.09-.4-1.12-.21-1.2,.17h0Z"/><path class="e" d="M29.63,57.53c.22,.5-.23,.92-.56,1.23s-.71,.65-1.08,.95c-.71,.6-1.44,1.19-2.07,1.89-1.14,1.25-1.97,3.08-1.27,4.75,.11,.26,1.28-.14,1.21-.32-.74-1.78,.25-3.66,1.51-4.93,.66-.66,1.4-1.24,2.11-1.85,.5-.43,1.72-1.26,1.36-2.05-.12-.26-1.29,.15-1.21,.32h0Z"/><path class="e" d="M32.88,57.87c-.14,.81-.4,1.58-.79,2.3s-1,1.37-1.59,1.97c-1.09,1.12-2.24,2.36-2.23,4.02,0,.26,1.21,.07,1.21-.32-.02-1.71,1.34-2.92,2.42-4.06s1.91-2.5,2.18-4.1c.06-.35-1.14-.14-1.2,.19h0Z"/><path class="e" d="M36.06,59.38c-.79,2.01-2.17,3.77-2.67,5.89-.41,1.76-.02,3.76,1.55,4.82,.39,.27,1.48-.29,.94-.65-1.51-1.02-1.65-3.03-1.19-4.64,.54-1.9,1.79-3.51,2.5-5.34,.24-.61-.97-.54-1.14-.09h0Z"/><path class="e" d="M38.64,59.48c1.97,3.15,2.34,7.21,.94,10.66-.24,.6,.96,.51,1.14,.08,1.49-3.67,1.14-7.88-.96-11.24-.25-.4-1.41,.02-1.11,.5h0Z"/><path class="e" d="M43.71,61.44c.59,.43,.64,1.21,.65,1.88,0,.91-.11,1.88,.02,2.78,.23,1.59,2.09,2.52,3.53,2.71,.27,.04,.64-.05,.85-.23,.18-.15,.16-.3-.09-.33-.77-.1-1.5-.42-2.1-.92-.68-.57-1.01-1.21-1.02-2.09-.01-.83,.04-1.67,0-2.5-.03-.65-.17-1.33-.72-1.74-.21-.15-.57-.05-.79,.04-.09,.03-.54,.26-.34,.4h0Z"/><path class="e" d="M47.45,60.01c1.85,2.12,1.83,5.26,3.77,7.34,.28,.3,1.43-.14,1.12-.47-1.93-2.07-1.91-5.21-3.77-7.34-.27-.31-1.42,.12-1.12,.47h0Z"/><path class="e" d="M50.56,58.02c1.54-.45,3.02,.87,3.83,2.03,.86,1.24,1.32,3,2.91,3.52,.27,.09,.61,0,.85-.13,.13-.07,.4-.31,.12-.4-.85-.28-1.38-1.03-1.8-1.79s-.81-1.53-1.38-2.2c-1.16-1.36-2.91-2.04-4.66-1.53-.15,.04-.6,.19-.54,.41s.54,.13,.67,.09h0Z"/><path class="e" d="M53.1,54.42c-.2,.13-.23,.02,.04,.12,.12,.05,.23,.11,.34,.18,.2,.13,.38,.29,.57,.44,.36,.29,.74,.55,1.13,.78,.79,.46,1.65,.82,2.55,1.03,1.53,.37,3.49,.45,4.66-.8,.19-.2-.17-.25-.3-.25-.26,0-.62,.1-.8,.3-.53,.56-1.31,.47-2.01,.36-.91-.15-1.81-.46-2.63-.89-.38-.2-.75-.43-1.1-.68s-.69-.58-1.07-.81c-.74-.43-1.61-.32-2.32,.13-.21,.13-.13,.28,.08,.32,.28,.04,.62-.08,.85-.23h0Z"/><path class="e" d="M56.39,51.92c2.94-1.31,6.33-1.25,9.3-.07,.28,.11,1.38-.34,.99-.49-3.54-1.4-7.53-1.18-10.99,.36-.17,.08-.35,.23-.14,.35s.65-.06,.85-.15h0Z"/><path class="e" d="M56.77,48.23c.72-.34,1.59-.26,2.37-.23,.9,.04,1.8,.12,2.69,.26,1.73,.26,3.42,.69,5.05,1.29,.24,.09,.55,0,.77-.09,.04-.02,.54-.25,.37-.31-2.01-.73-4.1-1.24-6.23-1.47-1.87-.2-3.96-.4-5.71,.43-.14,.07-.36,.17-.16,.27,.19,.1,.67-.08,.84-.16h0Z"/><path class="e" d="M57.82,45.48c1.19-1.08,2.53-1.97,4.01-2.6,.7-.3,1.56-.72,2.35-.59s1.48,.52,2.27,.61c.28,.03,.66-.09,.79-.37s-.11-.47-.37-.5c-.86-.1-1.62-.57-2.49-.63-.96-.07-1.91,.31-2.78,.67-1.68,.68-3.23,1.67-4.57,2.88-.6,.55,.35,.94,.8,.54h0Z"/><path class="e" d="M57.14,42.21c.04-.26,.26-.36,.47-.46,.36-.18,.72-.36,1.07-.56,.7-.39,1.36-.83,1.98-1.35,1.15-.97,2.06-2.21,2.48-3.67,.08-.28-.36-.34-.54-.33-.27,.03-.6,.17-.68,.45-.41,1.43-1.38,2.62-2.56,3.5-.6,.45-1.26,.84-1.93,1.18-.59,.29-1.41,.6-1.51,1.35-.08,.55,1.15,.36,1.22-.12h0Z"/><path class="e" d="M56.7,38.87c1.53-.81,2.77-1.99,4.06-3.13,1.21-1.07,2.59-2.19,4.24-2.47,.24-.04,.64-.16,.67-.46,.04-.28-.33-.37-.54-.34-1.8,.3-3.32,1.24-4.7,2.4s-2.64,2.51-4.24,3.37c-.19,.1-.47,.32-.3,.56,.16,.22,.61,.16,.81,.06h0Z"/><path class="e" d="M56.18,34.63c.19-1.49,1.53-2.48,2.67-3.3,1.31-.93,2.72-1.72,4.21-2.32,.11-.04,.5-.18,.36-.36-.13-.15-.65,0-.78,.06-1.66,.67-3.25,1.52-4.71,2.56-1.22,.87-2.73,1.95-2.94,3.56-.04,.31,1.15,.09,1.19-.21h0Z"/><path class="e" d="M53.57,31.24c-.14-1.82,.74-3.51,2.23-4.52s3.07-1.54,4.29-2.79c.19-.19,.12-.41-.13-.49-.27-.08-.66,.03-.85,.23-1.28,1.31-3.12,1.83-4.54,2.95-1.52,1.2-2.35,3-2.2,4.94,.03,.45,1.25,.19,1.21-.32h0Z"/><path class="e" d="M51.69,27.29c-.14-1.93-.22-3.86-.22-5.8,0-1.5-.03-3.21,1.05-4.39,.2-.21-.17-.3-.31-.3-.28,0-.61,.11-.8,.31-1.07,1.17-1.14,2.79-1.15,4.29,0,2.07,.07,4.14,.22,6.2,.02,.33,1.24,.09,1.21-.32h0Z"/><path class="e" d="M47.93,25.13c-.74-1.86-1.61-4.39,.32-5.85,1.27-.97,3.01-1.41,3.7-2.99,.28-.63-.94-.64-1.16-.14-.33,.74-1,1.17-1.68,1.56-.77,.44-1.56,.85-2.2,1.48-1.75,1.74-.98,4.28-.19,6.27,.22,.54,1.42,.2,1.21-.32h0Z"/><path class="e" d="M43.71,23.79c-1.8-.49-2.99-3.08-2.43-4.8,.64-1.97,2.75-3.11,4.02-4.63,.17-.2-.15-.22-.29-.21-.23,.01-.64,.1-.81,.29-.71,.86-1.58,1.55-2.37,2.33s-1.6,1.66-1.82,2.74c-.38,1.84,.85,4.25,2.72,4.76,.26,.07,.61-.03,.84-.15,.11-.06,.41-.25,.15-.32h0Z"/><path class="e" d="M38.66,22.69l-.78-2.61c-.25-.83-.43-1.71-.79-2.49-.64-1.38-2.08-1.9-3.48-2.13-.27-.05-.67,.1-.79,.36-.13,.28,.12,.45,.36,.49,.58,.1,1.18,.25,1.69,.55,.59,.34,.95,.84,1.17,1.48,.53,1.54,.94,3.12,1.4,4.68,.16,.54,1.37,.21,1.21-.32h0Z"/><path class="e" d="M32.08,22.65c-2.09-1.38-3.29-3.94-3.03-6.43,.06-.54-1.16-.34-1.21,.13-.29,2.72,1.01,5.44,3.29,6.93,.37,.25,1.47-.29,.95-.63h0Z"/><path class="e" d="M33.84,21.44c.09-1.44-1.09-2.74-2.19-3.53-1.31-.94-2.9-.94-4.45-.86-.24,.01-.64,.18-.67,.45-.04,.3,.33,.35,.54,.34,1.29-.07,2.55-.07,3.64,.72,.48,.34,.89,.78,1.25,1.24,.39,.5,.71,1.1,.66,1.75-.04,.57,1.18,.37,1.22-.12h0Z"/><path class="e" d="M29.08,25.29c-.93-1.18-2.27-1.88-3.53-2.66-.62-.38-1.23-.78-1.77-1.27s-1.03-1.1-1.82-1.18c-.28-.03-.63,.04-.85,.23-.17,.15-.16,.34,.1,.37,.68,.06,1.16,.79,1.64,1.2,.54,.46,1.14,.84,1.75,1.21,1.2,.73,2.46,1.42,3.35,2.55,.22,.28,1.39-.12,1.13-.45h0Z"/><path class="e" d="M25.91,28.49c1.44-1.55-3.65-2.45-4.43-2.58-1.15-.19-2.31-.28-3.48-.32s-2.29,.03-3.36,.48c-.15,.06-.47,.19-.35,.4,.11,.18,.66,.01,.79-.04,.86-.36,1.81-.31,2.73-.26s1.81,.13,2.71,.27,1.83,.35,2.72,.65c.43,.14,2.28,.69,1.57,1.45-.19,.21,.17,.26,.3,.26,.26,0,.62-.1,.8-.3h0Z"/><path class="e" d="M23.23,31.89c-1.47-.54-3.07-.6-4.62-.63s-3.06,.14-4.4,.9c-.22,.12-.46,.36-.29,.62,.16,.24,.6,.21,.82,.09,1.15-.65,2.46-.75,3.75-.73s2.76,.09,4.04,.56c.28,.1,.67,0,.85-.23s.11-.49-.16-.59h0Z"/><path class="e" d="M42.75,54.53c.23,2.13-.29,4.24-.61,6.33-.26,1.64-.23,3.72,1.61,4.39,.52,.19,1.41-.56,.69-.82-1.81-.66-1.16-3.26-.92-4.65,.32-1.85,.63-3.69,.43-5.58-.06-.56-1.27-.27-1.21,.32h0Z"/><path class="e" d="M46.38,55.52l.1-.06-.41,.18c-.21,.06,.16,.25,.22,.31,.13,.12,.24,.26,.36,.39,.26,.29,.51,.58,.73,.9,.4,.59,.66,1.27,.6,1.99-.06,.78-.39,1.52-.6,2.27-.22,.79-.38,1.58-.49,2.39-.05,.35,1.15,.13,1.2-.19,.14-1.01,.36-2,.67-2.98,.28-.89,.61-1.8,.35-2.74-.23-.82-.8-1.51-1.36-2.13-.28-.3-.56-.62-.97-.72-.46-.11-.94,.05-1.32,.3-.21,.14-.13,.28,.09,.32,.28,.04,.62-.08,.85-.23h0Z"/><path class="e" d="M48.96,53.17c.65-.25,1.5,.3,1.99,.67,.6,.45,1.13,1,1.75,1.43,1.18,.83,2.58,1.34,4.04,1.05,.19-.04,.66-.13,.69-.38s-.36-.24-.51-.21c-1.61,.32-3.05-.81-4.19-1.8-.57-.49-1.17-.99-1.89-1.24-.78-.27-1.58-.24-2.35,.05-.15,.06-.49,.24-.34,.43s.63,.04,.79-.02h0Z"/><path class="e" d="M51.33,50.39c1.49-.33,2.94,.57,3.93,1.61s1.87,2.48,3.5,2.52c.29,0,.66-.07,.79-.37,.11-.26-.1-.5-.37-.51-.81-.02-1.42-.57-1.93-1.15s-1.02-1.21-1.63-1.72c-1.26-1.05-2.89-1.57-4.51-1.21-.24,.05-.56,.29-.49,.58,.07,.3,.48,.31,.72,.25h0Z"/><path class="e" d="M52.85,47.67c-.04-1.7,2.27-1.99,3.54-2.04,1.66-.07,3.19,.94,4.55,1.76,.26,.16,.63,.11,.87-.07,.19-.15,.33-.47,.06-.62-.89-.53-1.8-1.06-2.75-1.47-1.01-.43-2.06-.57-3.15-.44-1.66,.19-4.39,.81-4.35,2.98,.01,.63,1.23,.45,1.22-.09h0Z"/><path class="e" d="M52.98,42.46c.78-.35,1.58-.47,2.4-.65s1.54-.62,2-1.36c.41-.66,.61-1.48,.7-2.25,.11-.9,.06-1.81-.14-2.7-.13-.56-1.34-.25-1.21,.32,.17,.77,.22,1.56,.14,2.35-.08,.7-.23,1.44-.6,2.05-.35,.58-.87,.71-1.5,.82-.81,.14-1.58,.35-2.34,.69-.23,.1-.45,.38-.28,.63s.59,.2,.82,.09h0Z"/><path class="e" d="M52.83,36.77c-.7-2.92,1.33-5.45,3.7-6.86,.2-.12,.32-.37,.09-.52-.24-.16-.64-.03-.86,.1-2.62,1.55-4.91,4.37-4.14,7.6,.11,.46,1.32,.15,1.21-.32h0Z"/><path class="e" d="M50.49,32.98c-.16-.88-.31-1.76-.47-2.65s-.34-1.84-.33-2.77c.01-1.4,.5-3.05,1.95-3.57,.21-.08,.46-.34,.3-.57-.17-.24-.59-.14-.81-.06-1.58,.57-2.49,2.16-2.63,3.77-.09,1,.06,2,.23,2.98,.18,1.06,.37,2.12,.56,3.18,.09,.5,1.3,.2,1.21-.32h0Z"/><path class="e" d="M42.58,28.36c2.36-.2,3.03-2.64,3.31-4.61s-.12-4.1-1.96-5.09c-.35-.19-1.46,.32-.96,.59,1.47,.79,1.9,2.59,1.77,4.14-.07,.88-.25,1.78-.52,2.61-.22,.68-.66,1.62-1.47,1.68-.21,.02-.65,.16-.69,.41-.04,.27,.35,.27,.52,.26h0Z"/><path class="e" d="M36.94,27.65c.52-1.75,.55-3.7-.31-5.35-.35-.68-.84-1.29-1.42-1.78-.68-.56-1.45-.86-2.29-1.08-.25-.06-.61,.06-.84,.16-.1,.05-.41,.21-.16,.28,1.58,.4,2.84,1.36,3.56,2.84,.78,1.6,.77,3.47,.27,5.15-.06,.19,1.1,.06,1.19-.23h0Z"/><path class="e" d="M32.66,28.06c-1.13-.75-2.07-1.77-2.7-2.97-.67-1.28-.91-2.64-.94-4.07,0-.29-1.21-.08-1.21,.32,.02,1.47,.28,2.86,.99,4.17,.65,1.2,1.58,2.24,2.73,2.99,.22,.15,.56,.06,.79-.03,.08-.03,.55-.27,.34-.41h0Z"/><path class="e" d="M23.66,35.82c.05,.83-1.45,.98-2.02,1.01-.94,.05-1.82-.21-2.72-.43-1.2-.3-3.27-.56-3.89,.87-.1,.23,.41,.2,.5,.19,.23-.03,.59-.13,.7-.37,.3-.68,1.35-.26,1.87-.12,.88,.23,1.75,.45,2.67,.46s1.8-.17,2.64-.47c.64-.23,1.51-.66,1.46-1.46-.02-.3-1.23-.08-1.21,.32h0Z"/><path class="e" d="M22.78,40.28c.03,.86-.35,1.72-1.05,2.23s-1.6,.65-2.42,.84c-1.55,.35-3.53,1.02-3.93,2.79-.09,.4,1.12,.21,1.2-.17,.43-1.92,2.72-1.96,4.24-2.42,.85-.26,1.68-.63,2.31-1.28s.89-1.45,.86-2.31c0-.33-1.22-.11-1.21,.32h0Z"/><path class="e" d="M22.99,45.04c-.2,1.76-2.2,2.44-3.43,3.39-1.3,1-2.4,2.39-2.32,4.11,.01,.25,1.22,.04,1.21-.32-.08-1.77,1.19-3.14,2.55-4.08,1.23-.84,3-1.61,3.18-3.29,.04-.34-1.16-.11-1.19,.2h0Z"/><path class="e" d="M27.51,48.32c-1.74-.14-2.99,1.09-3.85,2.45-.41,.65-.78,1.33-1.32,1.89s-1.25,.79-2.03,.86c-.25,.02-.64,.18-.67,.47s.33,.39,.55,.37c.82-.07,1.62-.26,2.33-.7,.66-.41,1.15-1.01,1.58-1.65,.68-1,1.49-2.97,2.98-2.85,.28,.02,.66-.09,.79-.36s-.11-.45-.36-.48h0Z"/><path class="e" d="M30.37,51.46c-1.7,.69-3.15,1.89-4.17,3.41-.53,.79-.81,1.67-1.23,2.51-.38,.77-1.03,1.42-1.91,1.56-.25,.04-.63,.16-.67,.47-.03,.28,.33,.4,.55,.36,.97-.16,1.87-.58,2.53-1.31s.94-1.78,1.4-2.68c.86-1.66,2.29-2.96,4.01-3.66,.22-.09,.46-.35,.29-.59s-.59-.16-.81-.07h0Z"/><path class="e" d="M33.98,52.75c-1.54,.84-3.07,2.08-3.41,3.89-.08,.4-.09,.82-.03,1.23,.08,.48,.29,.98,.03,1.44-.44,.8-1.6,1.14-2.4,1.44-.12,.05-.5,.2-.35,.38,.14,.17,.64,0,.78-.05,.89-.34,1.82-.69,2.57-1.3,.32-.26,.63-.59,.71-1,.1-.46-.1-.92-.16-1.37-.24-2.01,1.34-3.57,2.95-4.45,.16-.09,.36-.23,.14-.36-.2-.12-.67,.04-.85,.14h0Z"/><path class="e" d="M37.48,55.45c-.13,.07-.12-.07-.07,.04,.02,.05,.1,.09,.13,.14,.11,.17,.12,.4,.12,.59,0,.37-.08,.74-.16,1.1-.18,.79-.47,1.55-.69,2.33-.37,1.28-.68,3.2,.8,3.91,.27,.13,.62,.1,.86-.08,.17-.12,.35-.45,.08-.59-1.7-.82-.43-3.59-.05-4.86,.23-.77,.55-1.74,.33-2.54s-1.16-1.09-1.86-.71c-.2,.11-.47,.34-.29,.59,.16,.23,.61,.18,.81,.07h0Z"/><path class="e" d="M45.21,51.54h-.03l.03,.09-.16,.09-.46,.14c.61-.09,1.26-.07,1.8,.26,.51,.31,.86,.81,1.16,1.32,.58,1,1.06,2.14,2.21,2.58,.24,.09,.63-.04,.84-.15,.13-.06,.39-.23,.14-.33-1.33-.51-1.7-2.19-2.53-3.21-.47-.58-1.08-.91-1.82-1-.39-.05-.78-.04-1.16,0-.25,.03-.51,.05-.75,.14-.16,.06-.43,.16-.48,.35-.02,.04-.01,.08,.03,.1h.03c.23,.12,.55,.04,.78-.05,.05-.02,.55-.26,.36-.35h0Z"/><path class="e" d="M47.31,47.9c.79-.07,1.58-.14,2.37-.2,.74-.06,1.48-.07,2.16,.26,1.09,.53,1.86,1.55,3.06,1.89,.27,.08,.61,0,.85-.14,.11-.06,.41-.3,.13-.37-1.26-.35-2.06-1.51-3.26-1.98-.7-.27-1.48-.28-2.22-.23-.86,.06-1.72,.14-2.58,.22-.24,.02-.66,.08-.8,.3s.12,.27,.3,.26h0Z"/><path class="e" d="M48.93,44.44c1.07-.48,2.26-.66,3.43-.48,1.25,.19,2.39,.76,3.69,.62,.23-.02,.64-.16,.68-.43s-.35-.31-.53-.29c-.66,.07-1.31-.14-1.94-.32s-1.28-.32-1.94-.37c-1.32-.09-2.66,.17-3.87,.72-.18,.08-.48,.29-.31,.52s.61,.12,.8,.03h0Z"/><path class="e" d="M49.7,40.67c-.26-2.2,2.64-2.9,4.21-3.41,1.8-.58,3.67-1.28,4.87-2.82,.47-.6-.67-.8-1.01-.36-1.35,1.73-3.6,2.14-5.56,2.84-1.8,.64-3.98,1.83-3.72,4.08,.07,.56,1.28,.26,1.21-.32h0Z"/><path class="e" d="M45.79,35.31h.04l-.67-.18,.03,.05-.03-.36-.03,.05,.78-.38-.1-.02,.35,.19c-.51-.55-.64-1.44-.72-2.16-.08-.77-.21-1.73,.25-2.4s1.12-1.19,1.72-1.69c.66-.54,1.36-1.02,2.1-1.45s.07-1.13-.55-.77c-.89,.51-1.74,1.09-2.53,1.76-.73,.62-1.62,1.33-2.03,2.21s-.26,1.96-.14,2.87c.1,.75,.36,2.22,1.25,2.38,.3,.06,.65-.11,.78-.38,.09-.18,.05-.3-.03-.46-.12-.21-.47-.22-.67-.17h-.04c-.26,.07-.56,.32-.48,.62s.48,.34,.72,.28h0Z"/><path class="e" d="M39.42,30.91c-.24-1.01-.46-2.12,.28-2.98,.63-.73,1.39-1.31,1.99-2.08,1.22-1.56,2.04-3.4,2.39-5.36,.09-.52-1.13-.34-1.21,.13-.36,2.06-1.27,4.02-2.67,5.58-.61,.69-1.47,1.24-1.91,2.07-.5,.92-.29,1.99-.06,2.95,.11,.47,1.32,.16,1.21-.32h0Z"/><path class="e" d="M35.58,31.77c-.79-.25-1.23-1.34-1.52-2.02-.35-.82-.59-1.68-.73-2.56-.27-1.8-.06-3.63,.6-5.32,.16-.42-1.05-.28-1.21,.14-.72,1.85-.9,3.88-.54,5.83,.18,.96,.48,1.89,.92,2.76,.4,.8,.85,1.57,1.75,1.85,.41,.13,1.42-.47,.73-.68h0Z"/><path class="e" d="M31.71,32.17c-.86-.72-1.64-1.54-2.33-2.43-.58-.75-1.13-1.56-1.93-2.1-.85-.59-1.9-.71-2.9-.71-1.19,0-2.34,.24-3.45,.65-.22,.08-.45,.37-.29,.6,.18,.25,.58,.16,.82,.08,1.73-.63,4.09-.87,5.48,.56,.59,.61,1.05,1.33,1.6,1.98,.63,.75,1.33,1.43,2.08,2.06,.39,.33,1.46-.24,.94-.68h0Z"/><path class="e" d="M29.78,35.16c-1.32-1.65-3.04-2.98-4.98-3.82-1.83-.8-4.55-1.59-6.09,.18-.48,.54,.69,.56,.98,.23,.69-.79,1.71-.6,2.62-.35,.84,.23,1.64,.56,2.41,.96,1.53,.81,2.87,1.93,3.95,3.29,.28,.34,1.44-.09,1.12-.49h0Z"/><path class="e" d="M27.91,37.42c-.44,.21-.9,.38-1.37,.51-.53,.15-.87,.11-1.3-.25-.71-.58-1.19-1.31-1.82-1.96-.57-.59-1.33-.66-2.1-.68-1.02-.02-2.04,0-3.06,.08-.24,.02-.65,.18-.67,.46s.32,.36,.54,.34c1.06-.08,2.12-.13,3.18-.07,.51,.03,.84,.16,1.17,.56s.62,.77,.97,1.13c.6,.61,1.26,1.27,2.16,1.3,.95,.03,1.98-.41,2.83-.81,.2-.09,.47-.33,.3-.57s-.6-.16-.81-.06h0Z"/><path class="e" d="M26.03,41.94c-.14,.83-1.37,.89-2.04,.92-.87,.05-1.75-.05-2.6-.2-1.65-.29-3.27-.72-4.95-.81-.26-.01-.65,.05-.85,.23-.16,.14-.19,.27,.08,.28,2.21,.11,4.33,.87,6.55,1,1,.06,2-.01,2.97-.26,.71-.18,1.9-.51,2.04-1.37,.05-.3-1.14-.1-1.19,.21h0Z"/><path class="e" d="M39.41,52.15c-.21,.05-.14-.01-.08,.13,.05,.13,.16,.24,.22,.37,.1,.23,.17,.48,.24,.72,.17,.59,.25,1.18,.05,1.78-.33,1.01-1.06,1.86-1.45,2.86-.67,1.75-.48,3.93,1.27,4.97,.34,.2,1.45-.29,.96-.59-.9-.54-1.37-1.59-1.39-2.61-.04-1.27,.56-2.45,1.19-3.51,.58-.98,.92-1.88,.63-3.03-.25-.97-.63-1.99-1.81-1.7-.18,.04-.59,.22-.52,.47s.52,.19,.69,.14h0Z"/><path class="e" d="M36.89,49.51c.35,2.06-1.19,3.73-2.46,5.14s-2.53,2.95-2.53,4.92c0,.65,1.23,.48,1.23-.08,0-2.13,1.61-3.63,2.92-5.11s2.4-3.18,2.06-5.18c-.1-.58-1.31-.27-1.21,.32h0Z"/><path class="e" d="M33.32,47.81c-.75,2.01-2.94,2.73-4.63,3.77-1.78,1.09-3.05,2.79-3.25,4.91-.05,.56,1.17,.36,1.22-.12,.1-1.01,.44-1.97,1.04-2.79s1.49-1.41,2.39-1.9c1.68-.93,3.65-1.86,4.36-3.78,.23-.61-.98-.52-1.14-.08h0Z"/><path class="e" d="M30.57,46.45c.03,.79-.04,1.72-.84,2.11-.38,.19-.8,.29-1.2,.44-.46,.17-.89,.37-1.32,.61-1.52,.84-2.82,2.25-3.02,4.03-.06,.53,1.16,.32,1.21-.13,.21-1.87,1.67-3.16,3.34-3.83,.81-.33,1.73-.5,2.37-1.14s.7-1.55,.66-2.41c-.02-.44-1.23-.18-1.21,.32h0Z"/><path class="e" d="M30.65,43.6c-.27,.27-.42,.62-.67,.91-.26,.32-.65,.47-1.04,.54-.96,.17-1.98,.04-2.95,.14-1.69,.19-3.43,.8-4.51,2.19-.46,.59,.68,.72,1,.31,1.14-1.45,2.97-1.73,4.71-1.75,.94-.01,1.87,0,2.75-.37,.37-.16,.73-.39,1-.69s.42-.68,.71-.97c.2-.2,.1-.46-.15-.54-.29-.1-.65,.03-.85,.23h0Z"/><path class="e" d="M31.63,40.28c-1.69-.15-3.36-.51-4.96-1.09-1.51-.54-2.95-1.28-4.59-1.18-.22,.01-.68,.08-.8,.3s.11,.27,.3,.25c1.61-.09,3.12,.81,4.61,1.31s3.09,.82,4.68,.96c.28,.02,.63-.05,.85-.23,.18-.14,.17-.3-.09-.32h0Z"/><path class="e" d="M35.09,36.84c-1.66-.93-2.85-2.43-4.25-3.67-.67-.6-1.39-1.12-2.2-1.51-.87-.43-1.79-.76-2.47-1.48-.25-.26-1.38,.17-1.13,.44,.63,.67,1.49,1.03,2.31,1.41,.87,.41,1.64,.94,2.36,1.58,1.4,1.25,2.59,2.74,4.25,3.67,.23,.13,.55,.07,.79-.03,.07-.03,.56-.29,.34-.41h0Z"/><path class="e" d="M37.37,35.97c.86-1.05,.83-2.4,.71-3.68-.15-1.68-.34-3.35-.54-5.03-.03-.25-1.25,0-1.21,.32,.19,1.57,.36,3.14,.51,4.71,.12,1.24,.28,2.71-.57,3.75-.17,.2,.15,.22,.29,.21,.23-.01,.65-.1,.81-.29h0Z"/><path class="e" d="M39.92,36.25c.85-.34,1.13-1.44,1.42-2.22,.36-.94,.66-1.91,.88-2.89,.19-.83,.23-1.75,.55-2.55,.38-.92,1.14-.99,2.04-1.02,.24,0,.65-.18,.67-.46,.03-.3-.33-.35-.54-.34-.93,.03-1.92,.15-2.64,.79-.64,.56-.86,1.4-1.01,2.21-.18,1-.38,2-.68,2.97-.16,.53-.35,1.06-.56,1.57-.1,.25-.21,.5-.32,.74-.06,.14-.17,.5-.33,.56-.21,.08-.46,.34-.3,.57s.59,.15,.81,.06h0Z"/><path class="e" d="M43.23,37.6c1.66-.31,3.25-.87,4.73-1.69,.72-.4,1.39-.86,2.04-1.37,.56-.44,1.18-1.25,1.93-1.3,.22-.01,.65-.17,.68-.43,.03-.29-.34-.3-.53-.29-.83,.05-1.52,.48-2.14,1s-1.28,1.08-2,1.54c-1.39,.88-2.95,1.51-4.57,1.82-.22,.04-.65,.15-.68,.43s.34,.33,.53,.29h0Z"/><path class="e" d="M45.19,39.69l-.02-.04c-.08-.15-.36-.16-.49-.15-.3,.04-.55,.14-.72,.4-.06,.1-.05,.21,.02,.3,.21,.3,.71,.32,1.04,.38,.51,.09,1.02,.14,1.53,.14,1.04,0,2.08-.14,3.07-.45,.48-.15,.95-.34,1.41-.57,.09-.05,.24-.16,.34-.18,.17-.02,.06,0,.24,.07,.25,.1,.49,.24,.73,.35,1,.44,2.03,.78,3.1,1,.29,.06,.65,0,.85-.23,.16-.19,.14-.47-.14-.53-1.02-.21-2.02-.51-2.97-.94-.41-.18-.82-.47-1.26-.55s-.85,.09-1.24,.29c-.88,.46-1.81,.76-2.79,.88-.49,.06-.99,.07-1.48,.04-.26-.02-.51-.05-.77-.09-.14-.02-.29-.05-.43-.09-.21-.05-.25-.06-.13-.03l.02,.3,.03-.04-.64,.35h.05l-.49-.15,.02,.04c.22,.42,1.38,.01,1.11-.51h0Z"/><path class="e" d="M42.48,43.25c2.28,.83,4.7,1.32,7.13,1.4,.12,0,.7,.03,.62-.04,.08,.07,.12,.51,.16,.62,.16,.42,.41,.79,.73,1.1,.68,.67,1.54,.98,2.49,.98,.68,0,.93-.86,.11-.87-.89,0-1.74-.67-2.09-1.47-.14-.32-.11-.78-.39-1.01-.33-.28-.91-.17-1.3-.18-2.31-.09-4.58-.54-6.75-1.34-.5-.18-1.41,.54-.7,.8h0Z"/><path class="e" d="M40.02,39.81l-.05,.03,.74-.15h-.06l.19,.07c-.23-.16-.23-.71-.27-.97-.06-.37-.11-.75-.13-1.12-.03-.73,.08-1.45,.41-2.11,.55-1.11,1.57-1.89,2.66-2.42,.18-.09,.34-.3,.12-.43-.24-.13-.63,.02-.85,.12-1.38,.68-2.7,1.75-3.27,3.22-.33,.85-.32,1.78-.2,2.67,.04,.26,.08,.53,.13,.79,.03,.18,.05,.38,.14,.54,.24,.42,.85,.27,1.19,.07,.17-.1,.35-.3,.12-.43s-.65,0-.85,.12h0Z"/><path class="e" d="M37.74,39.06c-.96-1.39-2.15-2.66-2.85-4.22-.31-.7-.54-1.47-.53-2.25,0-.61,.17-1.45,.74-1.79,.16-.1,.35-.25,.13-.38-.2-.12-.67,.03-.85,.14-1.48,.9-1.4,2.75-.86,4.2,.67,1.79,2.02,3.2,3.09,4.75,.19,.27,1.36-.11,1.13-.44h0Z"/><path class="e" d="M35.78,40.77c-2.11-.77-4.44-1.96-5.68-3.92-.51-.81-.63-1.99-1.57-2.43-.85-.4-1.89-.23-2.78-.06-.14,.03-.7,.14-.71,.34,0,.21,.35,.16,.49,.13,.9-.18,2.02-.3,2.55,.62,.24,.42,.36,.9,.58,1.33s.49,.8,.79,1.15c1.36,1.61,3.38,2.61,5.33,3.32,.25,.09,.62-.04,.85-.15,.13-.07,.4-.24,.14-.33h0Z"/><path class="e" d="M34.53,44.65c-3.24-2.2-7.12-3.89-11.08-2.76-.75,.21-.51,1.1,.24,.89,3.54-1.01,7.04,.65,9.92,2.6,.47,.32,1.51-.33,.92-.73h0Z"/><path class="e" d="M40.47,43.48c1.76-1.27,3.59-2.45,5.49-3.52,.43-.24,.84-.46,1.34-.51,.43-.04,.86-.01,1.28,0,.88,.02,1.7-.1,2.44-.6,.23-.15,.29-.46,.06-.64-.25-.19-.64-.09-.87,.07-.67,.45-1.66,.24-2.42,.25-1.03,.02-1.84,.39-2.72,.9-1.86,1.07-3.66,2.23-5.41,3.48-.22,.16-.29,.46-.06,.64,.24,.19,.64,.09,.87-.07h0Z"/><path class="e" d="M42.19,46.91c1.04-.16,2.08-.25,3.13-.21,.46,.01,.87,.06,1.25,.35,.35,.26,.63,.59,.97,.87,1.31,1.09,2.92,1.69,4.63,1.59,.63-.04,.97-.8,.14-.76-.88,.05-1.75-.19-2.53-.59s-1.38-1.01-2.06-1.58-1.48-.65-2.34-.65c-1.02,0-2.04,.07-3.05,.23-.23,.04-.65,.16-.68,.44s.33,.35,.54,.31h0Z"/><path class="e" d="M42.96,48.05c-.65,.38-1.3,.75-1.81,1.32-.47,.53-.81,1.15-1,1.83-.37,1.37,.03,2.86,.97,3.91,.31,.34,1.46-.11,1.12-.49-.84-.93-1.2-2.22-.9-3.45,.14-.56,.41-1.11,.79-1.54,.44-.5,1.02-.82,1.59-1.15,.2-.12,.32-.37,.09-.52-.24-.16-.64-.03-.86,.1h0Z"/><path class="e" d="M38.69,46.31c-1.81,.16-3.81,.51-5.11,1.9-.53,.57-.95,1.28-1.01,2.07-.04,.45,.1,.97-.14,1.38-.18,.31-.55,.46-.86,.59-.18,.08-.48,.29-.32,.51s.61,.11,.8,.02c.71-.31,1.53-.74,1.7-1.58,.08-.42,0-.85,.06-1.27,.06-.38,.2-.73,.4-1.05,.94-1.48,2.73-1.74,4.34-1.88,.22-.02,.64-.16,.68-.42,.04-.28-.35-.3-.53-.28h0Z"/><path class="e" d="M37.75,44.78c.01-1.03-.5-1.98-1.35-2.55-.75-.51-1.64-.74-2.47-1.11s-1.54-.93-1.77-1.83,.03-1.86,.71-2.48c.21-.19-.18-.25-.3-.25-.28,0-.6,.11-.8,.3-.66,.6-.98,1.5-.88,2.38,.1,.93,.7,1.65,1.49,2.1s1.74,.67,2.55,1.12c1,.55,1.61,1.49,1.6,2.64,0,.25,1.2,.06,1.21-.32h0Z"/><path class="e" d="M39.22,43.28c-.31-.66-.57-1.55-.37-2.29,.1-.35,.35-.53,.65-.71,.35-.2,.7-.39,1.06-.56,1.44-.68,3-1.05,4.33-1.97,.21-.14,.12-.33-.1-.37-.29-.05-.62,.07-.85,.23-.67,.46-1.43,.74-2.18,1.02-.82,.31-1.63,.63-2.41,1.03-.66,.34-1.53,.75-1.72,1.54s.05,1.68,.38,2.39c.18,.37,1.35-.02,1.21-.32h0Z"/><path class="e" d="M40.5,45.33c.14-.47,.43-.77,.89-.71,.61,.07,1.17,.4,1.69,.71s1.03,.62,1.6,.83c.61,.23,1.26,.37,1.9,.51,.28,.06,.6-.02,.85-.15,.1-.05,.42-.29,.14-.35-.82-.18-1.66-.36-2.42-.74s-1.38-.87-2.15-1.15c-1.2-.44-3.26-.19-3.69,1.25-.08,.28,1.1,.13,1.19-.2h0Z"/><path class="e" d="M39.36,46.92l.26,.87c.05,.16,.1,.32,.15,.48,.03,.11,.11,.28,.08,.39-.04,.18-.37,.31-.51,.41-.25,.16-.5,.33-.74,.5-.86,.62-1.72,1.45-1.83,2.57-.05,.5,1.17,.28,1.21-.15,.11-1.14,1.03-1.83,1.92-2.42,.4-.26,1.13-.59,1.17-1.13,.02-.3-.12-.6-.2-.88l-.29-.96c-.13-.43-1.34-.1-1.21,.32h0Z"/></g></g></g></svg>