<?xml version="1.0" encoding="utf-8"?>
<!-- Generator: Adobe Illustrator 26.3.1, SVG Export Plug-In . SVG Version: 6.00 Build 0)  -->
<svg version="1.1" id="Layer_2_00000009549968527557611490000013809004449899528622_"
	 xmlns="http://www.w3.org/2000/svg" xmlns:xlink="http://www.w3.org/1999/xlink" x="0px" y="0px" viewBox="0 0 522 238.1"
	 style="enable-background:new 0 0 522 238.1;" xml:space="preserve">
<style type="text/css">
	.st0{fill:#45566B;}
	.st1{fill:#7D8C9C;}
	.st2{fill:#342417;}
	.st3{fill:#F9F9FA;}
	.st4{opacity:0.3;fill:#E5E025;enable-background:new    ;}
	.st5{fill:#231F20;}
	.st6{fill:#FFFFFF;}
	.st7{clip-path:url(#SVGID_00000176036814271488237140000000604093987511137169_);}
	.st8{fill:url(#SVGID_00000119806303938642272300000006028293869165235342_);}
	.st9{fill:#231F20;stroke:#231F20;stroke-width:0.25;stroke-miterlimit:10;}
</style>
<g id="Eyes">
	<g id="header_00000034084482275957957480000016303135145435040669_">
		<g>
			<path class="st0" d="M387.3,105.3c0,0-4.1,23.8-0.8,31.1s9,4.4,9.5,1.6s3.2-32.1,3.2-32.1"/>
			<path class="st0" d="M430,170.2c0,0,1.8,15.6,3.3,18.2s9.8,1.1,9.8,1.1l4.1-15.3"/>
			<path class="st0" d="M401.9,145.9c0,0,3.4,30.5,1,35.9s0,7.2,4.6,6.5s7.6-4.1,6.4-8.2s-4.2-30.2-4.2-30.2"/>
			<path class="st1" d="M371.7,80.4c0,0,19,9.6,36.8,7.8s7.4,10.1,14.3,31.3s58.1,32.1,43.7,72.9c-13.7,1.6-26.5,4.4-27.4,0
				s-2.5-13.1,1.4-14.9c-16.5-8.3-19-12.4-19-12.4s8.5,23.8-2,28.6s-11.2-0.3-7.2-6.7s-20.2-48.8-15.7-78.1
				c-7.9,1-33.5-1.9-27.4-28.5"/>
			<ellipse class="st2" cx="369.4" cy="80" rx="3.4" ry="2.8"/>
			<ellipse cx="396.5" cy="87.2" rx="4.2" ry="3.4"/>
			<circle class="st3" cx="395.2" cy="87.9" r="2"/>
			<path class="st0" d="M409,91.3c0,0,2.5-4.7,5.9-4.2s8.6,2.4,7.6,17.6s-2.2,26.4-1.5,31.6s-9,6.4-11.5-0.8
				C405.8,124.5,403.8,105.9,409,91.3L409,91.3z"/>
		</g>
	</g>
	<path class="st4" d="M138.9,92.4L460.7,0c0,0,60.7,39.2,61.3,120.2s-47.8,117.9-47.8,117.9l-350.1-85.8L138.9,92.4L138.9,92.4z"/>
	<path class="st5" d="M13.9,96.3c0,0,16.9-12.7,54.7-14.1s88.2-5.9,97.6-13.3c-2.6,15.6-11.9,74.2-25.4,100.6
		c-25.3,2.9-129.1,5.6-140.8,9.9C1.7,166.8,16.1,113.2,13.9,96.3L13.9,96.3z"/>
	<path class="st6" d="M22.6,101.1c0,0,26.4-14.6,54.2-13.8s73.9-3.1,80.9-6.7c-0.8,15.7-8.6,64.3-19.9,82.3c-24.6,2-112.5,7.1-131,9
		C11.4,160.2,23.4,122.2,22.6,101.1z"/>
	<g>
		<g>
			<defs>
				<path id="SVGID_1_" d="M22.6,101.1c0,0,26.4-14.6,54.2-13.8s73.9-3.1,80.9-6.7c-0.8,15.7-8.6,64.3-19.9,82.3
					c-24.6,2-112.5,7.1-131,9C11.4,160.2,23.4,122.2,22.6,101.1z"/>
			</defs>
			<clipPath id="SVGID_00000081622976325777409980000017764497908643851413_">
				<use xlink:href="#SVGID_1_"  style="overflow:visible;"/>
			</clipPath>
			<g style="clip-path:url(#SVGID_00000081622976325777409980000017764497908643851413_);">
				
					<linearGradient id="SVGID_00000094594862591980428950000000322385481497840296_" gradientUnits="userSpaceOnUse" x1="88.067" y1="646.159" x2="83.857" y2="738.109" gradientTransform="matrix(1 0 0 1 0 -552)">
					<stop  offset="0" style="stop-color:#6C0D1E"/>
					<stop  offset="0.43" style="stop-color:#842E43"/>
					<stop  offset="0.78" style="stop-color:#93435A"/>
					<stop  offset="1" style="stop-color:#994B63"/>
				</linearGradient>
				
					<ellipse style="fill:url(#SVGID_00000094594862591980428950000000322385481497840296_);" cx="86.6" cy="126.2" rx="38.3" ry="59.4"/>
				<ellipse class="st5" cx="87.7" cy="126.8" rx="25.1" ry="41.3"/>
				<ellipse class="st6" cx="105.1" cy="103.4" rx="9.7" ry="10.3"/>
			</g>
		</g>
	</g>
	<path class="st9" d="M20.2,54.3c0,0,70.9-1.7,87.7-14.5c13.8,3.1,38.4,6.1,44,1c-7.7-1.3-39.1-7.7-44.6-13.6
		C99.2,32.5,29.4,54.5,20.2,54.3z"/>
</g>
</svg>
