<?xml version="1.0" encoding="UTF-8"?><svg xmlns="http://www.w3.org/2000/svg" viewBox="0 0 53.51 93.73"><defs><style>.e{fill:#422a67;}.f{fill:#110e12;}</style></defs><g id="a"/><g id="b"><g id="c"><g id="d"><g><path class="f" d="M23.61,93.73c-.62-.26-1.3-.17-1.94-.22-3.95-.29-7.85-.85-11.67-1.83-2.5-.64-4.93-1.45-7.15-2.72-1-.57-1.91-1.23-2.66-2.08-.2-.22-.23-.4-.14-.69,2.77-8.66,5.23-17.39,7.4-26.19,1.65-6.68,3.13-13.4,4.36-20.16,.78-4.31,1.48-8.62,2.02-12.96,.85-6.84,1.32-13.7,1.06-20.59-.04-1.05-.14-2.1-.25-3.15-.03-.34,.05-.48,.44-.54,2.18-.28,4.06-1.16,5.73-2.45,.23-.18,.39-.21,.68-.09,2.36,.99,4.79,1.29,7.32,.63,.28-.07,.45,.06,.65,.16,1.86,.98,3.78,1.82,5.89,2.24,.06,.01,.12,.04,.19,.05,.44,.06,1.05-.05,1.26,.24,.21,.29,.06,.81,.06,1.22-.03,4.46,.24,8.9,.62,13.34,.42,4.97,1.06,9.92,1.87,14.84,2.36,14.2,6.07,28.1,11.23,41.67,.75,1.98,1.56,3.94,2.32,5.92,.23,.58,.4,1.18,.6,1.77v2.27s-.11,.08-.12,.12c-.37,1.79-1.49,3.14-2.98,4.27-1.9,1.43-4.12,2.31-6.44,2.98-3.25,.94-6.59,1.44-9.98,1.72-.73,.06-1.49-.02-2.2,.22h-8.19Zm3.92-.83c1.22-.02,2.19-.06,3.17-.09,2.94-.08,5.86-.36,8.74-.88,3.17-.57,6.27-1.37,9.05-2.94,3.57-2.02,5.01-4.83,3.39-8.7-3.34-8-6.1-16.18-8.4-24.49-1.35-4.87-2.53-9.78-3.54-14.72-.77-3.73-1.45-7.48-2.01-11.24-.43-2.88-.79-5.77-1.09-8.67-.3-2.88-.52-5.77-.73-8.65-.19-2.52-.19-5.04-.15-7.57,.01-.65-.14-.9-.89-1.03-2.02-.34-3.85-1.16-5.63-2.07-.24-.12-.47-.29-.78-.21-2.32,.59-4.58,.28-6.79-.48-.45-.15-.76-.09-1.11,.16-1.33,.95-2.83,1.6-4.47,1.96-.43,.09-.65,.24-.61,.71,.12,1.6,.22,3.21,.25,4.81,.06,3.26-.12,6.51-.35,9.76-.19,2.67-.48,5.33-.78,7.99-.36,3.17-.82,6.33-1.35,9.48-.63,3.71-1.32,7.42-2.08,11.11-1.34,6.49-2.89,12.95-4.59,19.37-1.64,6.18-3.39,12.33-5.33,18.43-.53,1.65-.52,1.67,1.03,2.71,2.1,1.42,4.5,2.28,6.97,2.96,5.99,1.64,12.14,2.18,18.11,2.28Z"/><path class="e" d="M27.53,92.9c-5.97-.09-12.12-.64-18.11-2.28-2.47-.68-4.87-1.53-6.97-2.96-1.54-1.04-1.55-1.06-1.03-2.71,1.94-6.1,3.69-12.26,5.33-18.43,1.71-6.42,3.25-12.88,4.59-19.37,.76-3.69,1.45-7.4,2.08-11.11,.54-3.15,1-6.31,1.35-9.48,.3-2.66,.59-5.32,.78-7.99,.23-3.25,.4-6.5,.35-9.76-.03-1.61-.13-3.21-.25-4.81-.03-.47,.18-.62,.61-.71,1.64-.36,3.14-1.01,4.47-1.96,.36-.26,.67-.32,1.11-.16,2.21,.76,4.46,1.07,6.79,.48,.32-.08,.54,.09,.78,.21,1.78,.91,3.62,1.72,5.63,2.07,.75,.13,.9,.38,.89,1.03-.04,2.52-.03,5.05,.15,7.57,.21,2.89,.43,5.77,.73,8.65,.3,2.9,.66,5.79,1.09,8.67,.56,3.76,1.25,7.51,2.01,11.24,1.01,4.94,2.2,9.85,3.54,14.72,2.3,8.31,5.05,16.49,8.4,24.49,1.62,3.87,.18,6.68-3.39,8.7-2.79,1.58-5.88,2.37-9.05,2.94-2.89,.52-5.8,.8-8.74,.88-.97,.03-1.94,.07-3.17,.09Z"/></g></g></g></g></svg>