<?xml version="1.0" encoding="UTF-8"?><svg xmlns="http://www.w3.org/2000/svg" xmlns:xlink="http://www.w3.org/1999/xlink" viewBox="0 0 537.76 238.08"><defs><style>.g{fill:#fff;}.h{fill:#f15a29;}.i{opacity:.3;}.i,.j{fill:#e5e025;}.k{fill:#00aeef;}.l{fill:url(#f);}.m{clip-path:url(#e);}.n{stroke:#231f20;stroke-width:.25px;}.n,.o{stroke-miterlimit:10;}.n,.p{fill:#231f20;}.q,.o{fill:none;}.o{stroke:#00a14b;stroke-width:5px;}</style><clipPath id="e"><path class="q" d="M22.6,101.05s26.39-14.63,54.22-13.85c27.83,.78,73.95-3.14,80.87-6.66-.78,15.68-8.62,64.28-19.86,82.31-24.56,1.96-112.49,7.05-131.04,9.01,4.57-11.63,16.59-49.65,15.81-70.81Z"/></clipPath><linearGradient id="f" x1="88.09" y1="94.16" x2="83.88" y2="186.11" gradientTransform="matrix(1, 0, 0, 1, 0, 0)" gradientUnits="userSpaceOnUse"><stop offset="0" stop-color="#6c0d1e"/><stop offset=".43" stop-color="#842e43"/><stop offset=".78" stop-color="#93435a"/><stop offset="1" stop-color="#994b63"/></linearGradient></defs><g id="a"/><g id="b"><g id="c"><path class="h" d="M327.69,128.05l13.42,10.59c.17,.14,.43,.11,.56-.07,.31-.43,.86-1.26,1.22-2.36,.05-.16,.01-.34-.11-.45-3.01-2.74-13.98-9.53-13.98-9.53l-1.11,1.82Z"/><path class="o" d="M342.56,137.77c1.07,1.05,23.52,21.73,39.83,20.69,17.73-1.13,44.3-24.46,60.59-27.78,16.29-3.32,31.12,17.5,43.45,20.72,12.33,3.23,47.86,7.91,47.86,7.91"/><path class="j" d="M342.96,135.86s.44-.78,.87-.48,.61,1.06,.28,1.9c-.39,.99-2.28,2.74-3.06,2.66-.64-.07-.41-1.25-.41-1.25"/><path class="k" d="M327.13,126.23s-16.34-15.5-16.64-22.87-5.41-1.1-1.8,4.27,2.02,4.57,2.02,4.57c0,0-9.53-10.08-12.11-8.05s14.63,11.98,17.72,14.13c2.67,1.86,10.8,7.94,10.8,7.94Z"/></g><g id="d"><path class="i" d="M154.71,92.39L476.49,0s60.68,39.17,61.26,120.15-47.71,117.93-47.71,117.93L139.91,152.25l14.8-59.85Z"/><path class="p" d="M13.85,96.34s16.85-12.67,54.74-14.11c37.89-1.44,88.19-5.88,97.59-13.33-2.61,15.55-11.89,74.21-25.35,100.6-25.35,2.87-129.08,5.62-140.84,9.93,1.7-12.67,16.07-66.24,13.85-83.09Z"/><path class="g" d="M22.6,101.05s26.39-14.63,54.22-13.85c27.83,.78,73.95-3.14,80.87-6.66-.78,15.68-8.62,64.28-19.86,82.31-24.56,1.96-112.49,7.05-131.04,9.01,4.57-11.63,16.59-49.65,15.81-70.81Z"/><g class="m"><ellipse class="l" cx="86.62" cy="126.2" rx="38.28" ry="59.38"/><ellipse class="p" cx="87.7" cy="126.78" rx="25.12" ry="41.28"/><ellipse class="g" cx="105.14" cy="103.45" rx="9.67" ry="10.32"/></g><path class="n" d="M20.25,54.27s70.94-1.7,87.66-14.5c13.85,3.14,38.41,6.14,44.03,1.05-7.71-1.31-39.06-7.71-44.55-13.59-8.23,5.23-78,27.31-87.14,27.04Z"/></g></g></svg>