<?xml version="1.0" encoding="UTF-8"?><svg xmlns="http://www.w3.org/2000/svg" xmlns:xlink="http://www.w3.org/1999/xlink" viewBox="0 0 539.29 238.08"><defs><style>.h{fill:#fff;}.i{opacity:.3;}.i,.j{fill:#e5e025;}.k{fill:url(#g);}.l{fill:#27aae1;}.m{stroke:#231f20;stroke-miterlimit:10;stroke-width:.25px;}.m,.n{fill:#231f20;}.o{fill:url(#d);}.p{fill:none;}.q{clip-path:url(#f);}</style><linearGradient id="d" x1="356.2" y1="132.36" x2="497.5" y2="211.7" gradientTransform="matrix(1, 0, 0, 1, 0, 0)" gradientUnits="userSpaceOnUse"><stop offset=".06" stop-color="#e76f24"/><stop offset=".44" stop-color="#00a14b"/></linearGradient><clipPath id="f"><path class="p" d="M22.74,100.81s26.55-14.72,54.54-13.93c27.99,.79,74.39-3.15,81.35-6.7-.79,15.77-8.67,64.66-19.98,82.8-24.71,1.97-113.16,7.1-131.82,9.07,4.6-11.7,16.69-49.94,15.9-71.23Z"/></clipPath><linearGradient id="g" x1="-251.83" y1="93.89" x2="-256.06" y2="186.38" gradientTransform="translate(340.44)" gradientUnits="userSpaceOnUse"><stop offset="0" stop-color="#6c0d1e"/><stop offset=".43" stop-color="#842e43"/><stop offset=".78" stop-color="#93435a"/><stop offset="1" stop-color="#994b63"/></linearGradient></defs><g id="a"/><g id="b"><g id="c"><path class="o" d="M507,172.54c0-.28,.41-.33,.46-.05,1.23,5.95,3.32,21.35-5.58,29.66-11.19,10.45-17.82-4.12-24.88-3.24s-28.71,11.04-33.28,4.12-16.64-12.37-30.77-5.15c-11.38,5.81-24.29,3.35-20.02-9.88s23.12-44.01,14.43-55.2-18.26-7.66-21.35-5.74-25.18,8.25-27.53,3.24,18.11-16.2,21.2-16.34,3.08,2.18,3.08,2.18c0,0,2.68-1.93,3.78-.91s2.37,2.51,2.37,2.51c0,0,15.44-.23,25.07,8.29,13.25,11.72-14.43,55.95-13.4,64.05s12.44-2.21,23.56-2.72c10.24-.47,20.54,3.31,25.03,9.79s23.85-7.95,29.45-5.45,14.09,7.16,19.34,4.64c4.97-2.39,8.93-15.69,9.04-23.8Z"/><path class="l" d="M361.35,130.67s-11.81,3.59-12.37,6.91-.37,4.44-.37,4.44c0,0-1.24-3.17-.68-4.51-.93,1.2-3.17-.85-3.17-.85,0,0,1.93,.07,3.61-1.27s11.69-5.71,11.69-5.71"/></g><g id="e"><path class="i" d="M156.24,92.39L478.02,0s60.68,39.17,61.26,120.15-47.71,117.93-47.71,117.93L141.45,152.25l14.8-59.85Z"/><path class="n" d="M13.93,96.08s16.95-12.75,55.07-14.19c38.11-1.45,88.71-5.91,98.18-13.41-2.63,15.64-11.96,74.65-25.5,101.2-25.5,2.89-129.85,5.65-141.68,9.99,1.71-12.75,16.17-66.63,13.93-83.59Z"/><path class="h" d="M22.74,100.81s26.55-14.72,54.54-13.93c27.99,.79,74.39-3.15,81.35-6.7-.79,15.77-8.67,64.66-19.98,82.8-24.71,1.97-113.16,7.1-131.82,9.07,4.6-11.7,16.69-49.94,15.9-71.23Z"/><g class="q"><path class="k" d="M125.65,126.11c0,32.99-17.24,59.73-38.51,59.73-21.27,0-38.51-26.74-38.51-59.73s17.24-59.73,38.51-59.73c21.27,0,38.51,26.74,38.51,59.73Z"/><path class="n" d="M85.29,79.47s7.78,36.55,20,43.88c-14,11.44-15.44,47.21-15.44,47.21l-3.23-1s-8.21-31.77-20.32-41.88c0,0,19.22-27.22,19-48.21Z"/><ellipse class="h" cx="71.99" cy="102.12" rx="9.73" ry="10.38"/></g><path class="m" d="M20.37,53.76s71.37-1.71,88.19-14.59c13.93,3.15,38.64,6.18,44.29,1.05-7.75-1.31-39.3-7.75-44.82-13.67-8.28,5.26-78.46,27.47-87.66,27.21Z"/><circle class="j" cx="384.9" cy="118.56" r="1.92"/><circle class="j" cx="379.33" cy="116.89" r="1.96"/><circle class="n" cx="384.9" cy="118.56" r=".69"/><circle class="n" cx="379.23" cy="116.98" r=".69"/></g></g></svg>