<?xml version="1.0" encoding="UTF-8"?><svg xmlns="http://www.w3.org/2000/svg" xmlns:xlink="http://www.w3.org/1999/xlink" viewBox="0 0 124.89 55.83"><defs><style>.h{fill:url(#f);}.i{fill:#6c0c1e;}.j{fill:url(#g);}.k{fill:url(#e);}</style><linearGradient id="e" x1="123.04" y1="22.77" x2="181.46" y2="2.89" gradientTransform="translate(-196.82 -92.54) rotate(19.12) scale(1.95 1.97) skewX(.55)" gradientUnits="userSpaceOnUse"><stop offset="0" stop-color="#1c302f"/><stop offset="1" stop-color="#799290"/></linearGradient><linearGradient id="f" x1="33.54" y1="21.23" x2="91.96" y2="1.35" gradientTransform="translate(7.37 -17.52) rotate(18.85)" xlink:href="#e"/><linearGradient id="g" x1="36.23" y1="31.14" x2="95.44" y2="10.99" gradientTransform="matrix(1, 0, 0, 1, 0, 0)" xlink:href="#e"/></defs><g id="a"/><g id="b"><g id="c"><g id="d"><ellipse class="k" cx="62.45" cy="28.58" rx="66.2" ry="16.08" transform="translate(-6.01 23.12) rotate(-20.03)"/><ellipse class="h" cx="56.47" cy="13.43" rx="34.04" ry="8.14" transform="translate(-1.31 18.96) rotate(-18.85)"/><path class="j" d="M91.74,10.97c-2.03,4.84-8.85,9.15-32.08,19.24-24.44,10.61-33.39,2.53-33.39,2.53l-.99-3.79L89.87,5.53s.88,2.7,1.87,5.44Z"/><path class="i" d="M92.57,13.28c-1.49,9.29-33.09,21.29-44.83,23.96-12.96,2.94-20.38-.42-20.38-.42l-1.12-4.22s7.27,6.36,32.62-2.8c23.82-8.61,31.22-15.1,32.39-20.33,.1,.29,.2,.57,.29,.82,.94,2.59,.5,1.71,1.04,3Z"/><path class="i" d="M85.52,12.69c-8.77,7.22-30.99,14.9-42.84,17.06s-17.39-.79-17.39-.79l-.94-4.32s4.14,6.38,31.7-2.5c24.11-7.77,31.96-14.36,32.49-20.04,.1,.29,.61,1.2,.7,1.45,.94,2.59,2.32,4.17-3.72,9.14Z"/></g></g></g></svg>