<?xml version="1.0" encoding="UTF-8"?><svg xmlns="http://www.w3.org/2000/svg" xmlns:xlink="http://www.w3.org/1999/xlink" viewBox="0 0 111.05 190.77"><defs><style>.j{mask:url(#h);}.k,.l,.m{fill:#fff;}.n,.l,.o,.p,.q,.m{stroke-miterlimit:10;}.n,.l,.o,.p,.m{stroke:#000;}.n,.o,.r{fill:none;}.s{fill:url(#c);}.l,.o,.p{stroke-width:.75px;}.t{fill:#ddd3c3;}.u{fill:url(#f);}.v{fill:#6d0e1f;}.p{fill:#6d574c;}.w{clip-path:url(#b);}.x{fill:url(#i);}.q{stroke:#231f20;stroke-width:.25px;}.q,.y{fill:#231f20;}.a`{fill:#808285;}.aa{fill:#d0c7b8;}.ab{fill:url(#d);}.ac{fill:url(#e);}.ad{fill:#cbc3b4;}</style><clipPath id="b"><path class="r" d="M49.53,34.19s-2.51-.6-4.91-.04-6.45,1.12-7.1,.98c.31,1.14,1.75,4.6,3,5.72,2.16-.3,9.85-1.53,11.48-1.72-.58-.78-2.21-3.37-2.47-4.95Z"/></clipPath><linearGradient id="c" x1="39.19" y1="38.9" x2="38.77" y2="48.03" gradientTransform="translate(79.17 5.19) rotate(-180) scale(.89 -.76)" gradientUnits="userSpaceOnUse"><stop offset="0" stop-color="#6b0e1f"/><stop offset=".43" stop-color="#832f44"/><stop offset=".78" stop-color="#92445b"/><stop offset="1" stop-color="#984c64"/></linearGradient><linearGradient id="d" x1="55.88" y1="-.57" x2="92.27" y2="-12.96" gradientTransform="translate(-83.85 -15.63) rotate(19.12) scale(1.95 1.97) skewX(.55)" gradientUnits="userSpaceOnUse"><stop offset="0" stop-color="#1c3130"/><stop offset="1" stop-color="#79918f"/></linearGradient><linearGradient id="e" x1="114.15" y1="-4.84" x2="150.54" y2="-17.23" gradientTransform="translate(-80.31 -22.5) rotate(18.85)" xlink:href="#d"/><linearGradient id="f" x1="115.82" y1="1.33" x2="152.7" y2="-11.22" gradientTransform="translate(-83.15 27.87) rotate(-3.74)" xlink:href="#d"/><linearGradient id="i" x1="32.23" y1="55.04" x2="40.95" y2="49.28" gradientTransform="translate(35.07 -12.05) rotate(33.82)" gradientUnits="userSpaceOnUse"><stop offset=".75" stop-color="#fff"/><stop offset=".89" stop-color="#000"/></linearGradient><mask id="h" x="31.53" y="45.59" width="11.66" height="12.12" maskUnits="userSpaceOnUse"><rect class="x" x="33.49" y="46.95" width="7.72" height="9.41" transform="translate(-22.43 29.53) rotate(-33.82)"/></mask></defs><g id="a"><polyline class="t" points="39.8 157.28 37.87 173.66 37.61 175.8 28.7 175.17 30.75 153.73"/><polyline class="t" points="28.42 153.08 26.48 169.46 26.23 171.61 17.31 170.98 19.36 149.53"/><path class="y" d="M69.83,66.83s-18.21,32.69-30.58,41.8c-14.2,5.37-21.37,10.76-22.7,14.19-.19,5.57,1.75,6.34,.74,8.29,21.66-15.73,20.93-13.32,25.7-14.6,4.93-6.63,28.68-39.88,28.68-39.88"/><path class="y" d="M64.01,64.92s-6.09,64.38,11.37,83.9,29.07-8.54,24.75-32.04c-4.32-23.5-17.28-52.67-22.75-56.31-3.15-2.1-13.29-1.74-13.37,4.44Z"/><g><path class="m" d="M103.06,142.12s2.11,10.7-6.87,18.19c-8.98,7.49-19.41,6.92-24.4-1.09-4.99-8.01-24.27-14.02-26.13-12.22s2.04,12.93-3.94,17.89c-5.98,4.96-8.29-11.96-13.51-6.6s-7.21,3.65-9.27,.09-4.26,1.55-4.32-5.16,6.49-36.54,12.42-40.68,15.23-6.21,23.29-.84c8.5,5.66,19,11.47,20.65,12.58s9.3,19.42,32.07,17.84Z"/><path class="n" d="M33.29,159.18s-.38-7.38,1.33-15.33c4.59-21.35,35.23,4.02,43.36,5.94"/><path class="n" d="M22.1,161.63s.26-11.48,3.88-19.87c3.62-8.39,8.43-22.18,18.87-16.56s21.92,14.35,26.85,13.99"/><path class="n" d="M17.98,157.27s5.94-33,13.61-39.23c7.67-6.24,13.81-1.86,18.02,1.54,7.96,6.43,20.54,9.7,20.54,9.7"/><path class="l" d="M82.05,80.38s-1.4-1.49-3.79-1.47-5.58-1.3-5.23,.12"/></g><g><path class="p" d="M47.93,20.51s9.17,7.56,7.12,34.4c-.33,3.7-.5-.66-2.04,1.49s-2.6,4.03-2.71,.55c-.11-3.48,1.99-14.41-2.04-23.3s-6.63-11.37-6.63-11.37"/><path class="p" d="M28.27,31.83s9.06,12.48,9.5,29.93c-.33,2.93,2.65-1.21,4.09,.11s3.37,1.44,2.37-2.32-4.31-24.74-8.17-30.15"/><path class="p" d="M34.4,29.4s9.44,20.71,8.94,30.48c.06,2.15,2.26-.39,2.93,.77s1.88,1.66,1.55-2.82c-.33-4.47-1.99-22.2-7.79-30.87"/><path class="p" d="M39.59,25.43s8.5,12.7,7.29,33.18c.5,2.1,2.37-1.6,3.92-.11s3.2-.11,1.82-8.61c-1.38-8.5-.83-20.76-7.95-27.06"/></g><circle class="t" cx="55.14" cy="32.76" r="26.25"/><path class="t" d="M70.69,49.18s6.95,9.61,8.8,13.16-1.75,5.41-1.75,5.41l-4.91-.83s-5.64-10.12-9.04-13.9"/><path class="a`" d="M72.08,112.96c-.02-.23-4.96-47.22-4.96-47.22,0,0,5.29,1.92,8.08,1.66,.61,6.99-3.12,45.56-3.12,45.56Z"/><path class="l" d="M83.36,64.38s16.6,13.55,21.73,31.82,4.86,32.63,4.86,32.63c0,0-.83,1.43-1.91,2.51s-9.06-9.59-9.06-9.59l-8.56-31.53-7.57-18.38"/><path class="y" d="M71.66,69.57s-6.09,64.38,11.37,83.9,29.07-8.54,24.75-32.04c-4.32-23.5-17.28-52.67-22.75-56.31-3.15-2.1-13.29-1.74-13.37,4.44Z"/><path class="l" d="M81.16,61.92s-3.39-3.83-3.51-5.01-2.74,.36-4.2,1.29c-1.47,.93-8.34-.28-7.38,1.89,.29,.65-.54,2.03-.03,4.29"/><path class="l" d="M65.45,60.9s1.76,.53,4.98,.5c2.07-.02,6.76-1,7.65-1.88,2.26-2.25,4.86,5,7.79,5.92s-10.97-.24-12.34,1.36-11.14,1.63-10.39-.5-.72-5.79,2.31-5.4Z"/><path class="o" d="M109.95,128.82s1.16,2.16,.54,6.49"/><path class="o" d="M109.1,130.09s.65,2.65,.1,5.9"/><path class="y" d="M37.87,173.66s3.09,1.79,1.05,6.87c-2.03,5.09-13.55,11.63-24.17,9.98-3.3-.51-6.45-7.56,.01-10.02s13.3-6.1,14.13-7.42c1.85,1.63,4.36,3.03,8.97,.59Z"/><path class="y" d="M26.86,166.54s3.09,1.79,1.05,6.87-13.55,11.63-24.17,9.98c-3.3-.51-6.45-7.56,.01-10.02,6.46-2.46,13.3-6.1,14.13-7.42,1.85,1.63,4.36,3.03,8.97,.59Z"/><path class="y" d="M22.08,123.65s-5.68-.4-7.14,4.01-1.67,9.43-1.04,9.48,2.48-1.95,2.48-1.95"/><g><path class="aa" d="M37.8,134.64s-5.11-.37-4.61-4.94c-.49-2.11-2.95,0-2.65,2.01s2.99,2.57,1.74,4.29c-1.08,1.49-6.37-1.81-7.4-4.66-.54-.69-1.31-.61-1.43,1.04s1.16,3.38,5.43,5.55c4.27,2.17,11.87,2.08,11.87,2.08"/><path class="aa" d="M35.56,139.01s-11.58-2.1-12.18-5.79c-.29-.91-2.1-.66-1.53,.77s1.04,4.12,7.43,5.07c6.39,.96,8.46,.98,8.46,.98"/><path class="aa" d="M30.96,139.02s-8.29-1.41-9.12-3.78c-.08-.77-2.01-.34-.76,1.2s4.03,4.35,7.45,4.4,10.4,.16,11.31,.12-.92-2.48-.92-2.48"/></g><g><path class="t" d="M22.41,124.49s2.92,6.89,6.3,4.79c1.85-.33,1.18,2.63-.51,3.09s-3.21-1.72-4.06,.01c-.74,1.51,3.96,5,6.6,4.89,.76,.23,1,.94-.24,1.65s-3.11,.2-6.52-2.81-6.36-9.81-6.36-9.81c0,0-1.23-3.08,1.18-4.37s4.04-1.71,4.04-1.71c0,0-.76,3.28-.44,4.26Z"/><path class="t" d="M20.47,130.55s6.27,9.54,9.39,8.73c.82-.08,1.35,1.63,0,1.64s-3.64,.58-6.94-4.76-4.14-7.17-4.14-7.17"/><path class="t" d="M22.3,134.65s4.41,6.86,6.6,6.74c.63-.2,1.07,1.66-.64,1.11s-4.81-2.1-6.42-5.02c-3.66-6.63-3.79-10.12-4.12-10.94s1.82,.85,1.82,.85"/></g><path class="y" d="M85.55,69.32s-9.83,36.1-19.65,47.92c-12.49,8.62-29.27,10.32-29.73,13.98,1.15,5.45,.4,16.08-.11,18.21,17.25-20.47,31.04-23.05,35.37-25.45,3.19-7.62,18.27-45.6,18.27-45.6"/><path class="y" d="M17.04,126.25s2.67-3.79,5.27-1.55c1.08,.94,1.71-7.32,1.71-7.32,0,0-3.24-.19-7.32,5.24-1.36,1.81-2.34,5.32-2.65,7.95-.36,3.05,1.37-1.62,2.98-4.33Z"/><path class="k" d="M36.91,131.23s2.06,9.72,.28,15.76c1.8-1.58,2.07-2.37,2.69-2.71,.09-3.24,.02-12.02-1.08-14.39-1.05,.74-1.89,1.34-1.89,1.34Z"/><g><path class="p" d="M76.53,12.67s9.17,7.56,7.12,34.4c-.33,3.7-.5-.66-2.04,1.49s-2.6,4.03-2.71,.55,1.99-14.41-2.04-23.3-6.63-11.37-6.63-11.37"/><path class="p" d="M49.03,27.91s6.4,8.5,5.58,20.87,.66,13.42,2.54,11.6,1.77,.72,3.09-.44,.44-13.36,.33-17.56-2.98-15.24-5.19-17.83"/><path class="p" d="M53.61,24.38s6.96,13.69,6.4,23.74-.33,11.48,2.76,9.77,3.75,.66,4.36-.44-1.93-17.39-2.87-20.54-2.82-10.44-4.64-12.64"/><path class="p" d="M56.87,23.99s9.06,12.48,9.5,29.93c-.33,2.93,2.65-1.21,4.09,.11s3.37,1.44,2.37-2.32-4.31-24.74-8.17-30.15"/><path class="p" d="M63,21.56s9.44,20.71,8.94,30.48c.06,2.15,2.26-.39,2.93,.77s1.88,1.66,1.55-2.82-1.99-22.2-7.79-30.87"/><path class="p" d="M68.19,17.59s8.5,12.7,7.29,33.18c.5,2.1,2.37-1.6,3.92-.11s3.2-.11,1.82-8.61-.83-20.76-7.95-27.06"/></g><path class="k" d="M22.56,123.49s-1.66-2.36-4.19-.46c-1.51,1.13-3.16,4.53-3.16,4.53,0,0,1.28-4.62,3.36-6,.99-.66,1.71-1.48,4.51-.22-.6,.58-.52,2.15-.52,2.15Z"/><g><path class="y" d="M50.22,33.69s-1.66-.63-4.96-.05-7.72,1.17-8.65,.79c.47,1.1,2.18,5.27,3.76,6.98,2.24-.25,11.26-1.94,12.34-1.83-.34-.91-2.42-4.6-2.49-5.89Z"/><path class="k" d="M49.53,34.19s-2.51-.6-4.91-.04-6.45,1.12-7.1,.98c.31,1.14,1.75,4.6,3,5.72,2.16-.3,9.85-1.53,11.48-1.72-.58-.78-2.21-3.37-2.47-4.95Z"/><g class="w"><ellipse class="s" cx="44.38" cy="37.22" rx="3.39" ry="4.49" transform="translate(-6.72 9.94) rotate(-11.89)"/><ellipse class="y" cx="44.3" cy="37.28" rx="2.22" ry="3.12" transform="translate(-6.73 9.93) rotate(-11.89)"/><ellipse class="k" cx="42.43" cy="35.88" rx=".86" ry=".78" transform="translate(-6.48 9.51) rotate(-11.89)"/></g></g><path class="q" d="M48.94,30.82s-6.9,1.39-8.81,.52c-1.27,.61-3.58,1.44-4.24,1.07,.72-.3,3.61-1.6,4.01-2.29,.91,.33,8.15,.93,9.03,.7Z"/><path class="p" d="M32.79,28.32s-.94,9.82,.34,15.53-.97,1.21-2.4,2.81c-1.65,1.83-1.85,3.44-2.01-.19s-.84-14.45-.37-16.39"/><ellipse class="ab" cx="48.7" cy="18.99" rx="41.24" ry="10.02" transform="translate(-3.52 21.24) rotate(-23.77)"/><ellipse class="ac" cx="44.37" cy="9.81" rx="21.21" ry="5.07" transform="translate(-.36 17.8) rotate(-22.59)"/><path class="u" d="M66.2,6.85c-1.07,3.09-5.13,6.05-19.16,13.27-14.76,7.59-20.65,2.93-20.65,2.93l-.77-2.32L64.81,3.54s.66,1.64,1.39,3.3Z"/><path class="v" d="M66.81,8.25c-.55,5.84-19.7,14.58-26.9,16.72-7.94,2.36-12.69,.57-12.69,.57l-.87-2.58s4.78,3.66,20.16-3.07c14.46-6.32,18.8-10.66,19.31-13.96,.07,.18,.15,.35,.21,.5,.69,1.57,.38,1.04,.77,1.82Z"/><path class="v" d="M62.4,8.17c-5.16,4.85-18.66,10.53-25.94,12.35s-10.84,.22-10.84,.22l-.76-2.65s2.83,3.8,19.61-2.84c14.67-5.81,19.28-10.23,19.38-13.78,.07,.18,.43,.72,.49,.87,.69,1.57,1.61,2.5-1.94,5.83Z"/><path d="M52.16,54.95s-.5-.08-2.36-.59-3.37,.37-5.22,.81c-1.49,.36-.03,1.17,.72,.76s2.69-1.44,3.96-1.15,2.9,.17,2.9,.17Z"/><path d="M51.46,55.33s-1.7,.03-2.77,0-1.99,.04-2.06,.42,1.15,.26,1.84,.01,3-.43,3-.43Z"/></g><g id="g"><g class="j"><path class="ad" d="M37.87,46.27s.53,4.29,.02,6.61,2.8,.13,4.69,.29"/></g></g></svg>