<?xml version="1.0" encoding="UTF-8"?><svg id="a" xmlns="http://www.w3.org/2000/svg" viewBox="0 0 224.54 215.37"><defs><style>.b{fill:#ed1c24;stroke:#231f20;stroke-miterlimit:10;stroke-width:5px;}.c{fill:#e79595;}</style></defs><path class="b" d="M222.04,68.9c0,46.64-53.6,54.33-109.77,141.79C67.43,138.84,2.5,120.07,2.5,68.9,2.5,32.47,32.03,2.94,68.46,2.94c16.55,0,39.61,18.41,43.26,31.95C118.08,15.75,138.8,2.5,155.63,2.5c36.67,0,66.41,29.73,66.41,66.4Z"/><path class="c" d="M97.47,30.33s-8.65-17.54-33.35-18.99C41.59,10.01-8.41,44.87,21.79,95.41c29.08,48.66-13.05-17.01,4.56-44.32,10.16-15.75,26.5-38.28,71.12-20.76Z"/></svg>