<?xml version="1.0" encoding="utf-8"?>
<!-- Generator: Adobe Illustrator 26.3.1, SVG Export Plug-In . SVG Version: 6.00 Build 0)  -->
<svg version="1.1" id="Layer_2_00000164480028283225929080000004231469085823134139_"
	 xmlns="http://www.w3.org/2000/svg" xmlns:xlink="http://www.w3.org/1999/xlink" x="0px" y="0px" viewBox="0 0 522 238.1"
	 style="enable-background:new 0 0 522 238.1;" xml:space="preserve">
<style type="text/css">
	.st0{fill:#D9E8F0;}
	.st1{fill:#7D8C9C;}
	.st2{fill:#45566B;}
	.st3{fill:#A6BCD0;}
	.st4{fill:#7A8D9D;}
	.st5{fill:#7E8D9F;}
	.st6{fill:#9EB6CB;}
	.st7{fill:#768594;}
	.st8{fill:#342417;}
	.st9{fill:#B1C5D9;}
	.st10{opacity:0.3;fill:#E5E025;enable-background:new    ;}
	.st11{fill:#231F20;}
	.st12{fill:#FFFFFF;}
	.st13{clip-path:url(#SVGID_00000155840407281902529500000011082591737187180441_);}
	.st14{fill:url(#SVGID_00000002371545256814332730000016057033220637176760_);}
	.st15{fill:#231F20;stroke:#231F20;stroke-width:0.25;stroke-miterlimit:10;}
</style>
<g id="Eyes">
	<g id="header_00000080200321490575509300000000563781936101349278_">
		<g>
			<path class="st0" d="M430.1,192.8c0,0-5.7-2.3-3.4,5.7c8.9-0.9,11.5-1.1,11.5-1.1l-1-4.2l-3.9-1.9"/>
			<path class="st1" d="M353.8,172.3c0,0,2.8,13.2,1.6,18c5.1,3.3,7.1,3.3,7.3,1.1s0-24.9-0.8-26.9c2.1,2.2,2.5,1.9,2.5,1.9
				s-1.5-9-1.6-12.7s-9.2-6.1-9.2-6.1"/>
			<path class="st2" d="M343.6,143.9c0,0,9,19.5,10.3,29.2c3.3-2.3,4.9-10.2,4.7-11.1c0.8,2.5,0.2,4.6,0.2,4.6s2.6-6.7-0.7-14"/>
			<path class="st1" d="M397.8,143.7c0,0,10.6,22.2,24.8,27.1c5.7,12.1,7.8,17.9,7.5,22.1c7.2,1.6,7.1,0.4,7.1,0.4s-4-22.7-5.3-25.2
				s-15.3-9.8-15.3-9.8"/>
			<path class="st2" d="M396.5,141.4c0,0,12.5,22.7,19.5,23c0.3-2.4-0.4-3.6-0.4-3.6s14,7.4,15.7,12.5c0.1-2.4-1.1-4.6-1.1-4.6
				s3.6,2.8,4.1,5.6c0.3-2.9-2-6.8-2-6.8s1.6,0.4,2,1.6c-0.4-2-4.3-6.9-4.3-6.9l-13.7-19.4l-5.5-4.3"/>
			<path class="st3" d="M332.3,91.4l-13.2-3.8c0,0,3.3,28.6,5.9,31.4c1-5.6,1.3-5,1.3-5s1.6,24.1,9.5,27.1c-1.7-4.2-0.8-8.1-0.8-8.1
				s15.1,33.4,46.4,15.4s46.6,5.9,46.6,5.9l-26.8-29.6l-23.5-6.7l-36.4-18.6"/>
			<path class="st3" d="M406.9,140c0,0,11.6,27.1,44.2,29.6c4.8,0.6,12.5,8.6,14.8,21.1l2.9-6.9l-6.7-13.9l-15.5-9l-17.9-12.8"/>
			<path class="st0" d="M474.4,192l0.9,5.2l-12.4,1.7c0,0-2.5-7.6,3.1-7.2"/>
			<path class="st4" d="M371.7,140.1c17.2,0,32.3-7.8,32.3-7.8c1,20.7,36.8,34.9,46.6,34.9c9.2,0,18,20.5,15.4,24.3
				c-0.2,0.3,9,4.5,8.4,0.4c-1.3-8.5-5.8-24.7-17.1-29.7c-16.8-7.4-9.8-18.5-17-35.9c-5.4-13.1-13.2-11.8-30.6-12.9
				c-3.5-0.2-0.2-0.4,3.1-4.4c-6,2.2-28.7-0.2-30.8-1.1c-1.4-0.5,6.2-2.2,4.7-2c-13.8,2.1-40.6-23.5-45.5-23
				c-5.8,0.5-10.7,7.1-10.7,7.1"/>
			<path class="st0" d="M384.6,189.9c0,0,0.9,2.9,0.2,4.7c-2.8,0.6-12.5,2-12.5,2s-3.1-7.2,4.8-6.9"/>
			<path class="st5" d="M373.7,135c0,0,7.7,40,10.9,54.9c-4.7,0.4-7.6,0.9-8-0.8c-4.1-14.8-46.2-94.6-49-99.2
				c-3.4-5.7,7.9-3.2,7.9-3.2"/>
			<path class="st6" d="M449.4,131.9c0,0,17.1,13.9,19.4,18.5c-0.4-2.8,0.6-3.5,0.6-3.5s5.4,13.3,22.1,10.6c8.4-1.4,9.1-2.6,9.1-2.6
				s-5.1,0.7-6.7,0c8-3.1,36.2-18,4.3-40.2c2.7,4.7,9.4,8.3,5,18.6s-23.3,12.6-23.3,12.6l-11.1-4.5"/>
			<path class="st0" d="M362.6,191.7l-0.3,3.8c0,0-12.1,2.9-12.5,1.1c-0.6-2.7,0.6-10,5.5-6.3S362.6,191.7,362.6,191.7L362.6,191.7z
				"/>
			<path class="st1" d="M415.2,113.7c0,0,13-6.2,45.2,14.2s48.1,4.4,37.9-13.3c13.2,13.4,8.9,32.2-14.7,35.6
				c2.5,1.5,4.5,1.8,4.5,1.8s-2.7,5.7-23.3-11.1c-0.4,1.2,0,2.5,0,2.5s-12-13.2-23.1-13.6"/>
			<path class="st1" d="M339.4,82.2c0,0,7.7,8.4,17.6-2.6c-2-0.7-7.4-3.2-10.6-5.4s-7.6,0.4-7.6,0.4"/>
			<path class="st2" d="M338.5,80c0,0,6.1,7,14.4,0.7c-3.7-2.7-6.5-5.4-9.1-4.8s-5.7,1.1-5.7,1.1"/>
			<path class="st7" d="M330.3,80.2l2.5,5.3l-3.5,1.6l-0.1,2.9l-2.1-0.8l-2.3-0.4l-1.3,0.4l-1.5,1l-4.5-4.8c0,0-1.1,2.5-1.1,3.7
				c-1.4-1.1-3.9-8.5-4.7-11.5s-3.1-8.8-4.9-9.8s-4.2-1.1-4.3-1.9s-0.7-2.7-0.3-4.1c2,1,9.1,5,9.1,5"/>
			<path class="st8" d="M310.7,50.7c0,0-2-1.6-2-2.5s-3.6,0.1-5.2,7.5c4.8,5.2,6.7,6.9,6.9,8.8c-1.7-1.7-4.8-5.3-7.3-6.1
				c-0.6,2.4-0.7,3.4-0.7,3.4l7.9,4.1l2.5-0.4L314,59"/>
			<path class="st9" d="M328.3,61.1L328.3,61.1c-0.1-0.1-1-1.6-1.5-1.4s-3.2,1.2-5.7,0.2s-10.2-8.7-10.5-9.2s-5.9,1.2-5.6,1.7
				s-0.8,3.8-0.8,3.8s5.3,4.1,6.2,6.4c0.9,2.3,0.1,2.8,0.1,2.8s-6.3-6.4-6.9-6.3s-2,1.9-1.3,4s3.5,2.9,5.2,2.8
				c0.8,0.3,8,7.4,8.5,16.3c0.5-2.2,1.4-3.7,1.4-3.7s1.7,3.5,2.4,3.9c-0.1-2,0.6-3.1,0.6-3.1s1.8,2.5,3.2,2.6
				c0.1-1.7-0.2-1.9-0.2-1.9s2.4,2,2.5,3c0.4-2.2-0.1-3-0.1-3s4,1.8,6.2,1.1s2.1-4,2.3-4.4s2-7.2,2-7.2l-5.3-6.1"/>
			<path class="st7" d="M328.4,61c0,0,9.2,6.7,10.9,7.2s2.6,7,2.6,7s-1,1.6-2.7,0.8c0,1.2,1.3,3,1.3,3s-1,3.5,0.3,4.8
				c-1.7,0.4-4.8,0.7-5.6,2.1s-0.9,2.3-0.9,2.3s-2.3-0.5-2.5,0.9s-0.4,2.4-0.4,2.4s-1.8,1.2-4.1-1.5c-0.2,1.5,0.5,2.3,0.5,2.3
				s-2.9,0-3-3c-1.1,1.6-1.8,3.4-1.8,3.4s-6-6.1-5.7-8.4l5,5.4l2.3-3.3l1.5,2.2l0.9-1.3l1.9,2.1l-1.3-4.8l4.5,0.1l-2.2-3.5l3.1-1.1
				l-3-6.4l5.4,0.9l-2.9-5.8l1.9,0.2l-2.6-3.2l1.4-0.2L328.4,61"/>
			<path class="st8" d="M323.8,62.9c0,0,2.5,0.7,3.4,2.3s0.7,2.2,0.7,2.2S325.5,63.3,323.8,62.9"/>
		</g>
	</g>
	<path class="st10" d="M139,92.4L460.7,0c0,0,60.7,39.2,61.3,120.2s-47.7,117.9-47.7,117.9l-350.1-85.8L139,92.4L139,92.4z"/>
	<path class="st11" d="M13.9,95.4c0,0,17-12.8,55.1-14.2c38.1-1.4,88.7-5.9,98.2-13.4c-2.6,15.6-12,74.7-25.5,101.2
		c-25.5,2.9-129.9,5.6-141.7,10C1.7,166.2,16.2,112.3,13.9,95.4z"/>
	<path class="st12" d="M22.7,100.1c0,0,26.6-14.7,54.5-13.9s74.4-3.2,81.4-6.7c-0.8,15.8-8.7,64.7-20,82.8
		c-24.7,2-113.2,7.1-131.8,9.1C11.4,159.7,23.5,121.4,22.7,100.1L22.7,100.1z"/>
	<g>
		<defs>
			<path id="SVGID_1_" d="M22.7,100.1c0,0,26.6-14.7,54.5-13.9s74.4-3.2,81.4-6.7c-0.8,15.8-8.7,64.7-20,82.8
				c-24.7,2-113.2,7.1-131.8,9.1C11.4,159.7,23.5,121.4,22.7,100.1L22.7,100.1z"/>
		</defs>
		<clipPath id="SVGID_00000044865427098478918230000012497403371925214632_">
			<use xlink:href="#SVGID_1_"  style="overflow:visible;"/>
		</clipPath>
		<g style="clip-path:url(#SVGID_00000044865427098478918230000012497403371925214632_);">
			
				<linearGradient id="SVGID_00000143582634864179037360000012946440879240592000_" gradientUnits="userSpaceOnUse" x1="-251.8264" y1="146.7998" x2="-256.0564" y2="54.3098" gradientTransform="matrix(1 0 0 -1 340.44 240)">
				<stop  offset="0" style="stop-color:#6C0D1E"/>
				<stop  offset="0.43" style="stop-color:#842E43"/>
				<stop  offset="0.78" style="stop-color:#93435A"/>
				<stop  offset="1" style="stop-color:#994B63"/>
			</linearGradient>
			<path style="fill:url(#SVGID_00000143582634864179037360000012946440879240592000_);" d="M125.7,125.4c0,33-17.2,59.7-38.5,59.7
				s-38.5-26.7-38.5-59.7s17.2-59.7,38.5-59.7S125.6,92.4,125.7,125.4z"/>
			<path class="st11" d="M85.3,78.8c0,0,7.8,36.6,20,43.9c-14,11.4-15.4,47.2-15.4,47.2l-3.2-1c0,0-8.2-31.8-20.3-41.9
				C66.3,127,85.5,99.8,85.3,78.8L85.3,78.8z"/>
			<ellipse class="st12" cx="72" cy="101.4" rx="9.7" ry="10.4"/>
		</g>
	</g>
	<path class="st15" d="M20.4,53.1c0,0,71.4-1.7,88.2-14.6c13.9,3.2,38.6,6.2,44.3,1c-7.8-1.3-39.3-7.8-44.8-13.7
		C99.8,31.1,29.6,53.3,20.4,53.1z"/>
</g>
</svg>
