<?xml version="1.0" encoding="utf-8"?>
<!-- Generator: Adobe Illustrator 26.5.0, SVG Export Plug-In . SVG Version: 6.00 Build 0)  -->
<svg version="1.1" id="Layer_1" xmlns="http://www.w3.org/2000/svg" xmlns:xlink="http://www.w3.org/1999/xlink" x="0px" y="0px"
	 viewBox="0 0 529.2 498.9" style="enable-background:new 0 0 529.2 498.9;" xml:space="preserve">
<style type="text/css">
	.st0{fill:#FFFFFF;}
	.st1{fill:#F1F2F2;stroke:#000000;stroke-width:3;stroke-miterlimit:10;}
</style>
<g>
	<path d="M116.3,323.5c24.4,0,44.1,19.7,44.1,44.1c0,24.4-19.7,44.1-44.1,44.1c-24.4,0-44.1-19.8-44.1-44.1
		C72.3,343.2,92,323.5,116.3,323.5z M116.3,402.7c19.3,0,35.1-15.8,35.1-35.1c0-19.3-15.7-35.1-35.1-35.2
		c-19.3,0-35.2,15.8-35.2,35.1C81.2,386.9,97,402.7,116.3,402.7z"/>
	<path d="M123.1,379.9c0,2.9,0,5.9,0,8.8c0,3.9-2.9,6.9-6.8,6.9c-3.8,0-6.7-3-6.7-6.9c0-6,0-11.9,0-17.9c0-3.2,2.5-6.1,5.6-6.6
		c3.5-0.5,6.6,1.4,7.6,4.7c0.2,0.7,0.3,1.4,0.3,2.2c0,1.5,0,3,0,4.4C123.1,377,123.1,378.5,123.1,379.9z"/>
	<path d="M116.3,358.6c-5,0-9-4.1-9-9c0.1-5,4.2-9,9.1-9c4.9,0.1,8.9,4.1,8.9,9C125.3,354.6,121.3,358.6,116.3,358.6z"/>
</g>
<g>
	<path class="st0" d="M399.5,356.2c0-2,0.6-3.1,2.5-3.8c7.5-2.7,14.9-2.7,22.3,0.1c1.7,0.6,2.3,1.7,2.3,3.4c0,10.6,0,21.3,0,31.9
		c0,2.8-0.6,3.2-3.2,2.3c-6.9-2.2-13.8-2.2-20.7,0c-2.8,0.9-3.2,0.5-3.2-2.5c0-5.2,0-10.5,0-15.7S399.6,361.4,399.5,356.2z"/>
	<path class="st0" d="M428.4,356c0-2,0.7-3.1,2.6-3.8c7.4-2.6,14.7-2.6,22.1,0.1c1.7,0.6,2.6,1.6,2.6,3.5c-0.1,10.6,0,21.3,0,31.9
		c0,2.8-0.5,3.2-3.2,2.3c-6.9-2.2-13.8-2.2-20.7,0c-2.9,0.9-3.3,0.6-3.3-2.4c0-5.3,0-10.6,0-16C428.4,366.5,428.5,361.3,428.4,356z"
		/>
	<path class="st0" d="M460.1,355.3c0,11.7,0,23.3,0,35c0,3.4-0.7,4.1-4.2,4.1c-7.5,0-15,0-22.6,0c-1.5,0-2.9,0-4.2,1.3
		c-1,1.1-2.4,1-3.4-0.1c-1.1-1.2-2.5-1.3-3.9-1.3c-7.5,0-15,0-22.6,0c-3.5,0-4.3-0.8-4.3-4.3c0-11.8,0-23.5,0-35.2
		c0-3.2,0.8-3.9,4.5-3.6c-1.4,1.4-1.3,3-1.3,4.7c0,11.3,0,22.6,0,34c0,3.1,0.4,3.4,3.2,2.3c7.9-3.1,15.8-3.1,23.7,0.1
		c1.7,0.7,3.3,0.8,5.1,0.1c8-3.2,16-3.1,24,0.1c2.3,0.9,3,0.6,3-1.9c0-11.8,0-23.7,0-35.5c0-1.5-0.5-2.8-2.1-3.6
		C459.3,350.8,460.1,351.4,460.1,355.3z"/>
	<g>
		<path d="M428.8,328.8c-24.4,0-44.2,19.8-44.2,44.2c0,24.4,19.8,44.2,44.2,44.2c9.8,0,18.9-3.2,26.2-8.6c0.4-0.3,0.7-0.5,1.1-0.8
			c0.5-0.4,1-0.8,1.4-1.2c0.3-0.2,0.6-0.5,0.8-0.7c4.8-4.4,8.7-9.8,11.2-15.8c0.3-0.7,0.6-1.4,0.8-2c0.2-0.6,0.4-1.2,0.6-1.8
			c1.3-4.2,2-8.6,2-13.2C473,348.6,453.2,328.8,428.8,328.8z M431,352.3c7.4-2.6,14.7-2.6,22.1,0.1c1.7,0.6,2.6,1.6,2.6,3.5
			c-0.1,10.6,0,21.3,0,31.9c0,2.8-0.5,3.2-3.2,2.3c-6.9-2.2-13.8-2.2-20.7,0c-2.9,0.9-3.3,0.6-3.3-2.4c0-5.3,0-10.6,0-16
			c0-5.2,0.1-10.5,0-15.7C428.3,354,429.1,352.9,431,352.3z M402,352.3c7.5-2.7,14.9-2.7,22.3,0.1c1.7,0.6,2.3,1.7,2.3,3.4
			c0,10.6,0,21.3,0,31.9c0,2.8-0.6,3.2-3.2,2.3c-6.9-2.2-13.8-2.2-20.7,0c-2.8,0.9-3.2,0.5-3.2-2.5c0-5.2,0-10.5,0-15.7
			s0.1-10.5,0-15.7C399.4,354.2,400.1,353,402,352.3z M460.1,390.2c0,3.4-0.7,4.1-4.2,4.1c-7.5,0-15,0-22.6,0c-1.5,0-2.9,0-4.2,1.3
			c-1,1.1-2.4,1-3.4-0.1c-1.1-1.2-2.5-1.3-3.9-1.3c-7.5,0-15,0-22.6,0c-3.5,0-4.3-0.8-4.3-4.3c0-11.8,0-23.5,0-35.2
			c0-3.2,0.8-3.9,4.5-3.6c-1.4,1.4-1.3,3-1.3,4.7c0,11.3,0,22.6,0,34c0,3.1,0.4,3.4,3.2,2.3c7.9-3.1,15.8-3.1,23.7,0.1
			c1.7,0.7,3.3,0.8,5.1,0.1c8-3.2,16-3.1,24,0.1c2.3,0.9,3,0.6,3-1.9c0-11.8,0-23.7,0-35.5c0-1.5-0.5-2.8-2.1-3.6
			c4.2-0.6,5.1,0.1,5.1,3.9C460.1,366.9,460.1,378.6,460.1,390.2z"/>
		<path d="M452.5,366.9c-0.3,1.4-1.3,1-2.1,0.7c-3.3-1.3-6.7-1.6-10.2-1.4c-2.2,0.1-4.3,0.7-6.4,1.4c-0.7,0.2-1.6,0.5-1.9-0.6
			c-0.2-0.8,0.5-1.2,1.2-1.4c6.1-2.5,12.2-2.5,18.2,0.1C451.8,365.8,452.4,366.1,452.5,366.9z"/>
		<path d="M441.9,378.2c3.3-0.1,6.3,0.4,9.1,1.6c0.7,0.3,1.6,0.6,1.3,1.6c-0.3,1-1.2,0.7-1.9,0.5c-5.5-2-11-2.1-16.6,0
			c-0.7,0.3-1.6,0.5-1.9-0.6c-0.3-1,0.7-1.3,1.3-1.5C436.1,378.6,439,378,441.9,378.2z"/>
		<path d="M442.1,371c3.2-0.1,6.1,0.4,9,1.7c0.7,0.3,1.8,0.6,1.4,1.7c-0.4,0.9-1.3,0.5-2,0.3c-5.5-2-10.9-2-16.4-0.1
			c-0.8,0.3-1.8,0.7-2.1-0.5c-0.3-1,0.7-1.2,1.4-1.5C436.1,371.5,439,370.9,442.1,371z"/>
		<path d="M452.3,359.6c-0.1,0.8-0.6,1-1.3,0.8c-0.9-0.2-1.8-0.5-2.7-0.8c-4.8-1.4-9.5-1.2-14.2,0.5c-0.8,0.3-1.9,0.9-2.4-0.4
			c-0.3-1.1,0.8-1.4,1.5-1.7c5.9-2.2,11.7-2.1,17.5,0.2C451.5,358.5,452.2,358.8,452.3,359.6z"/>
		<path d="M413.1,363.6c3.2,0.2,6.3,0.7,9.2,2c0.6,0.3,1.4,0.6,1.1,1.5c-0.3,1-1.2,0.8-1.9,0.5c-5.5-2-11.1-2-16.6-0.1
			c-0.7,0.2-1.6,0.5-1.9-0.5c-0.3-1,0.6-1.3,1.3-1.5C407.1,364.2,410.1,363.8,413.1,363.6z"/>
		<path d="M423.4,359.5c0,0.6-0.3,1-0.9,1c-0.5,0-1-0.1-1.5-0.3c-5.3-1.9-10.5-2-15.8,0c-0.8,0.3-1.9,0.9-2.3-0.4
			c-0.3-1.1,0.8-1.4,1.5-1.7c5.8-2.2,11.5-2.2,17.3,0C422.9,358.5,423.3,359,423.4,359.5z"/>
		<path d="M413,371c3.1-0.1,6,0.4,8.9,1.6c0.7,0.3,1.8,0.6,1.5,1.7c-0.3,1.1-1.4,0.7-2.2,0.4c-5.4-1.9-10.7-2-16.1-0.1
			c-0.8,0.3-1.8,0.7-2.2-0.3c-0.4-1.1,0.7-1.4,1.4-1.7C407.1,371.4,410,371,413,371z"/>
		<path d="M413,378.2c3.3-0.1,6.2,0.5,9.1,1.7c0.7,0.3,1.6,0.6,1.3,1.6c-0.3,1-1.3,0.7-2,0.4c-5.4-2-10.9-2-16.3-0.1
			c-0.8,0.3-1.8,0.7-2.1-0.5c-0.3-1,0.7-1.2,1.4-1.5C407.1,378.7,410.1,378,413,378.2z"/>
	</g>
</g>
<rect x="37.9" y="294.7" width="151.4" height="22.7"/>
<rect x="353" y="298" width="151.4" height="22.7"/>
<path class="st1" d="M220,425.2c0,0,11,6.3,22.3,4.6c11.3-1.7,14.8-3.1,14,6.8c-0.8,9.9-54.8,18.8-54.9,7.6
	c-0.1-11.2,2.7-19.1,2.7-19.1"/>
<path class="st1" d="M192.1,425.6c0,0,12.7,9.7,24.9,7.1c12.1-2.7,13.6,12,5.9,16.8s-48.6,4.5-52.3-1.1c-3.8-5.6,4.1-25,4.1-25"/>
<path class="st1" d="M199.9,358.6l-7.3,66.9c0,0-13.5,5.3-17.2-2.2c1.3-10.2,7.3-60.7,7.3-60.7"/>
<path class="st1" d="M224.7,356.4c0,0-7.1,59-4.6,68.8c-6,5.3-15.9,0-15.9,0l4-72.9"/>
<path class="st1" d="M124.1,295.5c72.9-10.7,56.2,47,48.5,54c-8.6,7.8,8.8,37.1,43.7,11c9.6-7.2,21.6,12.5,23.1,0.6
	c3.7-30.9,3.2-80.4-34.3-96.2c-15.9-6.7-35.8-13.6-53.8-11.2"/>
<ellipse transform="matrix(0.974 -0.2264 0.2264 0.974 -5.7739 35.2865)" class="st1" cx="150.9" cy="42.8" rx="27.6" ry="10.1"/>
<path class="st1" d="M137.9,148.4c-1.7-22.4,30.5-12.9,24.7,4.4c-3.9,11.8,11.2,75,15.3,102.3c1.3,8.4-31.1,36.6-47.4,44.7
	c-5.9,2.9-12.8,1.6-17.2-2.7c-2.4-2.3-3.3-5.7-2.5-8.9c1.2-5-1.3-8,2.8-37.8C118.8,211.6,138.9,161.2,137.9,148.4z"/>
<ellipse transform="matrix(0.974 -0.2264 0.2264 0.974 -9.0261 36.4109)" class="st1" cx="154.2" cy="57.6" rx="61.7" ry="16.1"/>
<path class="st1" d="M386.3,329.5c0,0-21.6,31.7-28.3,62.1c-4.1,17.7-4.3,23.9-4.3,23.9h13.4c0,0-1.8-40.8,25.6-81.4"/>
<path class="st1" d="M354.8,407.1c0,0-20.4-2.5-20.1,6.7c0.3,9.2,2.1,16.1,28.4,11.4s4.2-18.4,4.2-18.4"/>
<path class="st1" d="M368.7,317.6c0,0-21.6,31.7-28.3,62.1c-4.1,17.7-4.3,23.9-4.3,23.9h10.6c0,0,4-40.6,28.4-81.4"/>
<ellipse class="st1" cx="160.6" cy="87.7" rx="40.3" ry="38.6"/>
<path class="st1" d="M432.1,165.5c0,0,22.4,112.9,3.4,121.6c-19,8.7-12.7,55.4-12.7,55.4s-62.4-2.2-62.7-32.2
	c24.4-36.2,45.2-48.7,45.2-48.7s7.8-93.3,12-100.1C421.4,154.6,432.8,161,432.1,165.5z"/>
<path class="st1" d="M476.7,99.2c1.4,24.8-20.1,44.9-44.9,44.9c-24.8,0-44.9-20.1-44.9-44.9c0-14.5,6.8-27.4,17.5-35.6
	c7.6-5.9,17.1-9.4,27.5-9.4C456.4,54.2,475.3,74.1,476.7,99.2z"/>
<path class="st1" d="M401.1,66.3c0,0,13.1,30.1,26.3,33.9c-1.8,13.5-10.2,43.7-7.5,48.1c8-0.4,30.3-4.6,34.3-2.7s21.2-1.5,21.2-1.5
	l1.4-45.9c0,0-5.2-38.8-39.3-44C418.1,51.8,401.1,66.3,401.1,66.3z"/>
<path class="st1" d="M372.7,365.8"/>
<path class="st1" d="M335.9,400.9c0,0-21.5-4-23.9,3.5c-2.4,7.5-0.9,24,28,15.6s7.2-19.1,7.2-19.1"/>
</svg>
